<svg width="28" height="28" viewBox="0 0 28 28" fill="none" xmlns="http://www.w3.org/2000/svg">
<path d="M24.5 20.125V22.75C24.5 22.9821 24.4078 23.2046 24.2437 23.3687C24.0796 23.5328 23.8571 23.625 23.625 23.625H21C20.7679 23.625 20.5454 23.5328 20.3813 23.3687C20.2172 23.2046 20.125 22.9821 20.125 22.75V20.125M24.5 20.125H3.5M24.5 20.125V13.125L21.2309 5.76963C21.1622 5.61496 21.0501 5.48355 20.9082 5.39132C20.7662 5.29909 20.6006 5.25 20.4314 5.25H7.56864C7.39938 5.25 7.23376 5.29909 7.09184 5.39132C6.94992 5.48355 6.8378 5.61496 6.76906 5.76963L3.5 13.125V20.125M7.875 20.125V22.75C7.875 22.9821 7.78281 23.2046 7.61872 23.3687C7.45462 23.5328 7.23206 23.625 7 23.625H4.375C4.14294 23.625 3.92038 23.5328 3.75628 23.3687C3.59219 23.2046 3.5 22.9821 3.5 22.75V20.125M19.25 16.625H21M7 16.625H8.75M1.75 13.125H26.25" stroke="#2B2B2B" stroke-opacity="0.75" stroke-width="1.5" stroke-linecap="round" stroke-linejoin="round"/>
</svg>
