<svg width="25" height="24" viewBox="0 0 25 24" fill="none" xmlns="http://www.w3.org/2000/svg">
<g clip-path="url(#clip0_165_1421)">
<path d="M17.5 14C18.0113 13.9998 18.5141 14.1304 18.9608 14.3792C19.4075 14.628 19.7831 14.9868 20.0521 15.4216C20.3211 15.8565 20.4745 16.3528 20.4978 16.8636C20.521 17.3743 20.4134 17.8825 20.185 18.34L20.118 18.466L20.018 18.631L19.877 18.831L19.761 18.972L19.645 19.098C19.5254 19.2202 19.3956 19.3319 19.257 19.432L19.108 19.532L19.019 19.587C18.9843 19.6083 18.9487 19.6283 18.912 19.647L18.742 19.732L18.567 19.805L18.463 19.842L18.293 19.894L18.121 19.936L17.938 19.968L17.863 19.978C17.803 19.9853 17.743 19.9907 17.683 19.994L17.5 20L17.317 19.994L17.137 19.978L16.945 19.948L16.775 19.912L16.595 19.861L16.537 19.842C16.4783 19.8221 16.4203 19.8005 16.363 19.777L16.202 19.705L16.034 19.618L15.981 19.588C15.8997 19.54 15.8207 19.488 15.744 19.432L15.584 19.308L15.434 19.174L15.305 19.045L15.239 18.972L15.139 18.852L15.019 18.687L14.945 18.574L14.882 18.466L14.815 18.34C14.6076 17.9238 14.4997 17.465 14.5 17C14.5 16.2044 14.8161 15.4413 15.3787 14.8787C15.9413 14.3161 16.7044 14 17.5 14ZM7.5 14C8.01129 13.9998 8.51414 14.1304 8.9608 14.3792C9.40747 14.628 9.78313 14.9868 10.0521 15.4216C10.3211 15.8565 10.4745 16.3528 10.4978 16.8636C10.521 17.3743 10.4134 17.8825 10.185 18.34L10.118 18.466L10.018 18.631L9.877 18.831L9.761 18.972L9.645 19.098C9.52542 19.2202 9.39561 19.3319 9.257 19.432L9.108 19.532L9.019 19.587C8.98433 19.6083 8.94867 19.6283 8.912 19.647L8.742 19.732L8.567 19.805L8.463 19.842L8.293 19.894L8.121 19.936L7.938 19.968L7.863 19.978C7.803 19.9853 7.743 19.9907 7.683 19.994L7.5 20L7.317 19.994L7.137 19.978L6.945 19.948L6.775 19.912L6.595 19.861L6.537 19.842C6.47834 19.8221 6.42032 19.8005 6.363 19.777L6.202 19.705L6.034 19.618L5.981 19.588C5.89967 19.54 5.82067 19.488 5.744 19.432L5.584 19.308L5.434 19.174L5.305 19.045L5.239 18.972L5.139 18.852L5.019 18.687L4.945 18.574L4.882 18.466L4.815 18.34C4.60756 17.9238 4.49972 17.465 4.5 17C4.5 16.2044 4.81607 15.4413 5.37868 14.8787C5.94129 14.3161 6.70435 14 7.5 14ZM14.5 5C14.7589 4.99999 15.0076 5.10036 15.194 5.28L15.281 5.375L18.98 10H19.5C20.2652 9.99996 21.0015 10.2923 21.5583 10.8173C22.115 11.3422 22.4501 12.0601 22.495 12.824L22.5 13V17C22.5 17.2652 22.3946 17.5196 22.2071 17.7071C22.0196 17.8946 21.7652 18 21.5 18H21.374C21.4573 17.68 21.4993 17.3467 21.5 17C21.4994 16.4325 21.3781 15.8716 21.1441 15.3546C20.9101 14.8376 20.5688 14.3763 20.1428 14.0013C19.7168 13.6264 19.2159 13.3464 18.6733 13.1799C18.1308 13.0134 17.559 12.9643 16.996 13.0358C16.4331 13.1073 15.8917 13.2978 15.408 13.5946C14.9243 13.8914 14.5093 14.2877 14.1906 14.7573C13.8718 15.2268 13.6566 15.7588 13.5593 16.3179C13.4619 16.877 13.4847 17.4504 13.626 18H11.374C11.4567 17.68 11.4987 17.3467 11.5 17C11.4994 16.4325 11.3781 15.8716 11.1441 15.3546C10.9101 14.8376 10.5688 14.3763 10.1428 14.0013C9.71677 13.6264 9.21587 13.3464 8.67332 13.1799C8.13078 13.0134 7.55903 12.9643 6.99605 13.0358C6.43307 13.1073 5.89174 13.2978 5.40804 13.5946C4.92433 13.8914 4.50932 14.2877 4.19056 14.7573C3.87181 15.2268 3.65662 15.7588 3.55928 16.3179C3.46194 16.877 3.48468 17.4504 3.626 18H3.5C3.23478 18 2.98043 17.8946 2.79289 17.7071C2.60536 17.5196 2.5 17.2652 2.5 17V11L2.507 10.883L2.515 10.827L2.532 10.749L2.544 10.713L2.558 10.663L4.572 5.629C4.64613 5.44344 4.77416 5.28434 4.93957 5.17223C5.10498 5.06011 5.30018 5.00013 5.5 5H14.5ZM7.5 16C7.23478 16 6.98043 16.1054 6.79289 16.2929C6.60536 16.4804 6.5 16.7348 6.5 17C6.5 17.2652 6.60536 17.5196 6.79289 17.7071C6.98043 17.8946 7.23478 18 7.5 18C7.76522 18 8.01957 17.8946 8.20711 17.7071C8.39464 17.5196 8.5 17.2652 8.5 17C8.5 16.7348 8.39464 16.4804 8.20711 16.2929C8.01957 16.1054 7.76522 16 7.5 16ZM17.5 16C17.2348 16 16.9804 16.1054 16.7929 16.2929C16.6054 16.4804 16.5 16.7348 16.5 17C16.5 17.2652 16.6054 17.5196 16.7929 17.7071C16.9804 17.8946 17.2348 18 17.5 18C17.7652 18 18.0196 17.8946 18.2071 17.7071C18.3946 17.5196 18.5 17.2652 18.5 17C18.5 16.7348 18.3946 16.4804 18.2071 16.2929C18.0196 16.1054 17.7652 16 17.5 16ZM14.02 7H13.5V10H16.42L14.02 7Z" fill="#153B4F"/>
</g>
<defs>
<clipPath id="clip0_165_1421">
<rect width="24" height="24" fill="white" transform="translate(0.5)"/>
</clipPath>
</defs>
</svg>
