<svg width="48" height="48" viewBox="0 0 48 48" fill="none" xmlns="http://www.w3.org/2000/svg">
<rect width="48" height="48" rx="24" fill="#153B4F" fill-opacity="0.2"/>
<g clip-path="url(#clip0_162_561)">
<path d="M28.5 19H19.5C19.22 19 19 19.22 19 19.5V28.5C19 28.78 19.22 29 19.5 29H28.5C28.78 29 29 28.78 29 28.5V19.5C29 19.22 28.78 19 28.5 19ZM28 28H20V20H28V28ZM35.5 23C35.78 23 36 22.78 36 22.5C36 22.22 35.78 22 35.5 22H34V20H35.5C35.78 20 36 19.78 36 19.5C36 19.22 35.78 19 35.5 19H34V18.5C34 16.02 31.98 14 29.5 14H29V12.5C29 12.22 28.78 12 28.5 12C28.22 12 28 12.22 28 12.5V14H26V12.5C26 12.22 25.78 12 25.5 12C25.22 12 25 12.22 25 12.5V14H23V12.5C23 12.22 22.78 12 22.5 12C22.22 12 22 12.22 22 12.5V14H20V12.5C20 12.22 19.78 12 19.5 12C19.22 12 19 12.22 19 12.5V14H18.5C16.02 14 14 16.02 14 18.5V19H12.5C12.22 19 12 19.22 12 19.5C12 19.78 12.22 20 12.5 20H14V22H12.5C12.22 22 12 22.22 12 22.5C12 22.78 12.22 23 12.5 23H14V25H12.5C12.22 25 12 25.22 12 25.5C12 25.78 12.22 26 12.5 26H14V28H12.5C12.22 28 12 28.22 12 28.5C12 28.78 12.22 29 12.5 29H14V29.5C14 31.98 16.02 34 18.5 34H19V35.5C19 35.78 19.22 36 19.5 36C19.78 36 20 35.78 20 35.5V34H22V35.5C22 35.78 22.22 36 22.5 36C22.78 36 23 35.78 23 35.5V34H25V35.5C25 35.78 25.22 36 25.5 36C25.78 36 26 35.78 26 35.5V34H28V35.5C28 35.78 28.22 36 28.5 36C28.78 36 29 35.78 29 35.5V34H29.5C31.98 34 34 31.98 34 29.5V29H35.5C35.78 29 36 28.78 36 28.5C36 28.22 35.78 28 35.5 28H34V26H35.5C35.78 26 36 25.78 36 25.5C36 25.22 35.78 25 35.5 25H34V23H35.5ZM33 29.5C33 31.43 31.43 33 29.5 33H18.5C16.57 33 15 31.43 15 29.5V18.5C15 16.57 16.57 15 18.5 15H29.5C31.43 15 33 16.57 33 18.5V29.5Z" fill="#153B4F"/>
</g>
<defs>
<clipPath id="clip0_162_561">
<rect width="24" height="24" fill="white" transform="translate(12 12)"/>
</clipPath>
</defs>
</svg>
