<svg width="19" height="18" viewBox="0 0 19 18" fill="none" xmlns="http://www.w3.org/2000/svg">
<path d="M7.21406 15.1515L3.34827 11.2857M10.0625 4.49991L14 8.43741M7.017 15.1874H3.875C3.72582 15.1874 3.58274 15.1282 3.47725 15.0227C3.37176 14.9172 3.3125 14.7741 3.3125 14.6249V11.4829C3.3125 11.409 3.32705 11.3359 3.35532 11.2677C3.38359 11.1994 3.42502 11.1374 3.47725 11.0852L11.9148 2.64766C12.0202 2.54217 12.1633 2.48291 12.3125 2.48291C12.4617 2.48291 12.6048 2.54217 12.7102 2.64766L15.8523 5.78967C15.9577 5.89516 16.017 6.03823 16.017 6.18741C16.017 6.3366 15.9577 6.47967 15.8523 6.58516L7.41475 15.0227C7.36252 15.0749 7.30051 15.1163 7.23226 15.1446C7.16402 15.1729 7.09087 15.1874 7.017 15.1874Z" stroke="#153B4F" stroke-linecap="round" stroke-linejoin="round"/>
</svg>
