<svg width="48" height="48" viewBox="0 0 48 48" fill="none" xmlns="http://www.w3.org/2000/svg">
<rect width="48" height="48" rx="24" fill="#153B4F" fill-opacity="0.2"/>
<g clip-path="url(#clip0_162_568)">
<path d="M27.5 26C27.224 26 27 26.224 27 26.5V29H13V16.5C13 14.57 14.57 13 16.5 13H23.5C25.43 13 27 14.57 27 16.5C27 16.776 27.224 17 27.5 17C27.776 17 28 16.776 28 16.5C28 14.019 25.981 12 23.5 12H16.5C14.019 12 12 14.019 12 16.5V31.5C12 33.981 14.019 36 16.5 36H23.5C25.981 36 28 33.981 28 31.5V26.5C28 26.224 27.776 26 27.5 26ZM23.5 35H16.5C14.57 35 13 33.43 13 31.5V30H27V31.5C27 33.43 25.43 35 23.5 35ZM36 31.5C36 31.776 35.776 32 35.5 32C33.436 32 31.687 30.757 30.937 28.756L29.154 24H24.608C23.335 24 22.229 23.104 22.035 21.917C21.916 21.183 22.12 20.441 22.597 19.881C23.074 19.321 23.767 19 24.502 19H31.926L31.993 18.862C31.993 18.862 30.646 17.167 30.644 17.164C29.74 16.156 29.8 14.602 30.794 13.675C31.801 12.734 33.382 12.781 34.318 13.781L35.866 15.421C35.953 15.513 36.001 15.635 36.001 15.762C36.001 16.21 35.454 16.429 35.145 16.104L33.594 14.471C33.032 13.872 32.08 13.842 31.476 14.407C30.874 14.968 30.841 15.916 31.403 16.522C31.407 16.526 32.775 18.241 32.775 18.241C33.037 18.57 33.086 19.01 32.903 19.388C32.72 19.767 32.346 20.002 31.925 20.002H24.501C24.061 20.002 23.644 20.195 23.358 20.531C23.068 20.872 22.949 21.307 23.022 21.758C23.137 22.467 23.819 23.002 24.608 23.002H29.501C29.709 23.002 29.896 23.131 29.969 23.326L31.874 28.406C32.474 30.007 33.864 31.002 35.501 31.002C35.777 31.002 36.001 31.226 36.001 31.502L36 31.5ZM21.5 33H18.5C18.224 33 18 32.776 18 32.5C18 32.224 18.224 32 18.5 32H21.5C21.776 32 22 32.224 22 32.5C22 32.776 21.776 33 21.5 33Z" fill="#153B4F"/>
</g>
<defs>
<clipPath id="clip0_162_568">
<rect width="24" height="24" fill="white" transform="translate(12 12)"/>
</clipPath>
</defs>
</svg>
