<svg width="48" height="48" viewBox="0 0 48 48" fill="none" xmlns="http://www.w3.org/2000/svg">
<rect width="48" height="48" rx="24" fill="#153B4F" fill-opacity="0.2"/>
<g clip-path="url(#clip0_162_582)">
<path d="M20 12C16.691 12 14 14.691 14 18C14 21.309 16.691 24 20 24C23.309 24 26 21.309 26 18C26 14.691 23.309 12 20 12ZM20 23C17.243 23 15 20.757 15 18C15 15.243 17.243 13 20 13C22.757 13 25 15.243 25 18C25 20.757 22.757 23 20 23ZM17 26H23V27H17C14.794 27 13 28.794 13 31V36H12V31C12 28.243 14.243 26 17 26ZM34.287 23.49L30.5 22.235L26.713 23.49C25.689 23.83 25 24.784 25 25.863V29.394C25 33.007 28.868 35.224 30.054 35.817L30.479 36.029L30.92 35.851C32.111 35.372 36 33.49 36 29.393V25.862C36 24.783 35.312 23.83 34.287 23.49ZM35 29.394C35 32.863 31.592 34.503 30.546 34.924L30.524 34.934L30.502 34.923C29.446 34.395 26.001 32.434 26.001 29.395V25.864C26.001 25.217 26.414 24.644 27.028 24.44L30.501 23.289L33.974 24.44C34.588 24.644 35.001 25.216 35.001 25.864V29.395L35 29.394Z" fill="#153B4F"/>
</g>
<defs>
<clipPath id="clip0_162_582">
<rect width="24" height="24" fill="white" transform="translate(12 12)"/>
</clipPath>
</defs>
</svg>
