<svg width="24" height="25" viewBox="0 0 24 25" fill="none" xmlns="http://www.w3.org/2000/svg">
<path d="M10.8848 22.2478V18.0978L7.63477 21.2978L6.23477 19.8978L10.8848 15.2478V13.2478H8.88477L4.23477 17.8978L2.83477 16.4978L6.03477 13.2478H1.88477V11.2478H6.03477L2.83477 7.9978L4.23477 6.5978L8.88477 11.2478H10.8848V9.2478L6.23477 4.5978L7.63477 3.1978L10.8848 6.3978V2.2478H12.8848V6.3978L16.1348 3.1978L17.5348 4.5978L12.8848 9.2478V11.2478H14.8848L19.5348 6.5978L20.9348 7.9978L17.7348 11.2478H21.8848V13.2478H17.7348L20.9348 16.4978L19.5348 17.8978L14.8848 13.2478H12.8848V15.2478L17.5348 19.8978L16.1348 21.2978L12.8848 18.0978V22.2478H10.8848Z" fill="#153B4F"/>
</svg>
