<svg width="61" height="60" viewBox="0 0 61 60" fill="none" xmlns="http://www.w3.org/2000/svg">
<rect x="0.5" width="60" height="60" rx="30" fill="#153B4F"/>
<g clip-path="url(#clip0_78_420)">
<path d="M30.5 14C27.3355 14 24.2421 14.9384 21.6109 16.6965C18.9797 18.4546 16.9289 20.9534 15.7179 23.8771C14.5069 26.8007 14.1901 30.0177 14.8074 33.1214C15.4248 36.2251 16.9487 39.0761 19.1863 41.3137C21.4239 43.5514 24.2749 45.0752 27.3786 45.6926C30.4823 46.3099 33.6993 45.9931 36.6229 44.7821C39.5466 43.5711 42.0454 41.5203 43.8035 38.8891C45.5616 36.2579 46.5 33.1645 46.5 30C46.4954 25.7579 44.8082 21.6909 41.8087 18.6914C38.8091 15.6918 34.7421 14.0046 30.5 14ZM30.5 16.6667C33.5753 16.6642 36.5559 17.7303 38.932 19.6827L20.1827 38.432C18.5834 36.4798 17.5716 34.1135 17.2648 31.6086C16.9581 29.1036 17.3692 26.5631 18.4501 24.2827C19.5311 22.0023 21.2375 20.0758 23.3708 18.7275C25.504 17.3792 27.9764 16.6645 30.5 16.6667ZM30.5 43.3333C27.4247 43.3358 24.4441 42.2697 22.068 40.3173L40.8173 21.568C42.4166 23.5202 43.4285 25.8865 43.7352 28.3914C44.0419 30.8964 43.6309 33.4369 42.5499 35.7173C41.4689 37.9977 39.7625 39.9242 37.6292 41.2725C35.496 42.6208 33.0236 43.3355 30.5 43.3333Z" fill="white"/>
</g>
<defs>
<clipPath id="clip0_78_420">
<rect width="32" height="32" fill="white" transform="translate(14.5 14)"/>
</clipPath>
</defs>
</svg>
