<svg width="25" height="24" viewBox="0 0 25 24" fill="none" xmlns="http://www.w3.org/2000/svg">
<g clip-path="url(#clip0_165_1426)">
<path d="M3.5 18C3.50003 17.7551 3.58996 17.5187 3.75272 17.3356C3.91547 17.1526 4.13975 17.0357 4.383 17.007L4.5 17H7.671C7.87802 16.4152 8.2612 15.9088 8.76783 15.5508C9.27445 15.1927 9.8796 15.0004 10.5 15.0004C11.1204 15.0004 11.7256 15.1927 12.2322 15.5508C12.7388 15.9088 13.122 16.4152 13.329 17H20.5C20.7549 17.0003 21 17.0979 21.1854 17.2728C21.3707 17.4478 21.4822 17.687 21.4972 17.9414C21.5121 18.1958 21.4293 18.4464 21.2657 18.6418C21.1021 18.8373 20.8701 18.9629 20.617 18.993L20.5 19H13.33C13.1329 19.5567 12.776 20.0429 12.3039 20.3978C11.8318 20.7527 11.2656 20.9604 10.676 20.995L10.5 21L10.324 20.995C9.73444 20.9604 9.16817 20.7527 8.69609 20.3978C8.22401 20.0429 7.86709 19.5567 7.67 19H4.5C4.23478 19 3.98043 18.8946 3.79289 18.7071C3.60536 18.5196 3.5 18.2652 3.5 18Z" fill="#153B4F"/>
<path d="M3.5 12C3.50003 11.7551 3.58996 11.5187 3.75272 11.3356C3.91547 11.1526 4.13975 11.0357 4.383 11.007L4.5 11H13.671C13.878 10.4152 14.2612 9.90885 14.7678 9.55075C15.2744 9.19266 15.8796 9.00038 16.5 9.00038C17.1204 9.00038 17.7256 9.19266 18.2322 9.55075C18.7388 9.90885 19.122 10.4152 19.329 11H20.5C20.7549 11.0003 21 11.0979 21.1854 11.2728C21.3707 11.4478 21.4822 11.687 21.4972 11.9414C21.5121 12.1958 21.4293 12.4464 21.2657 12.6418C21.1021 12.8373 20.8701 12.9629 20.617 12.993L20.5 13L19.33 13C19.1329 13.5567 18.776 14.0429 18.3039 14.3978C17.8318 14.7527 17.2656 14.9604 16.676 14.995L16.5 15L16.324 14.995C15.7344 14.9604 15.1682 14.7527 14.6961 14.3978C14.224 14.0429 13.8671 13.5567 13.67 13H4.5C4.23478 13 3.98043 12.8946 3.79289 12.7071C3.60536 12.5196 3.5 12.2652 3.5 12Z" fill="#153B4F"/>
<path d="M3.5 6C3.50003 5.75507 3.58996 5.51866 3.75272 5.33563C3.91547 5.15259 4.13975 5.03566 4.383 5.007L4.5 5H4.671C4.87802 4.41516 5.2612 3.90885 5.76782 3.55075C6.27445 3.19266 6.8796 3.00038 7.5 3.00038C8.1204 3.00038 8.72555 3.19266 9.23217 3.55075C9.7388 3.90885 10.122 4.41516 10.329 5L20.5 5C20.7549 5.00028 21 5.09788 21.1854 5.27285C21.3707 5.44782 21.4822 5.68695 21.4972 5.94139C21.5121 6.19584 21.4293 6.44638 21.2657 6.64183C21.1021 6.83729 20.8701 6.9629 20.617 6.993L20.5 7L10.33 7C10.1329 7.55672 9.77599 8.04294 9.30391 8.3978C8.83183 8.75266 8.26557 8.9604 7.676 8.995L7.5 9L7.324 8.995C6.73443 8.9604 6.16817 8.75266 5.69609 8.3978C5.22401 8.04294 4.86709 7.55672 4.67 7H4.5C4.23478 7 3.98043 6.89464 3.79289 6.70711C3.60536 6.51957 3.5 6.26522 3.5 6Z" fill="#153B4F"/>
</g>
<defs>
<clipPath id="clip0_165_1426">
<rect width="24" height="24" fill="white" transform="matrix(0 -1 1 0 0.5 24)"/>
</clipPath>
</defs>
</svg>
