<svg width="33" height="33" viewBox="0 0 33 33" fill="none" xmlns="http://www.w3.org/2000/svg">
<rect x="0.771629" y="0.919578" width="31.1607" height="31.1607" rx="15.5804" stroke="white" stroke-width="1.07451"/>
<path d="M21.8832 24.4855C23.0161 24.0478 23.9118 23.1522 24.3495 22.0193C24.5567 21.4826 24.7017 20.8703 24.7411 19.9747C24.7504 19.7649 24.7577 19.5888 24.7644 19.4121V13.4281C24.7597 13.3032 24.7546 13.1732 24.7478 13.0272C24.7085 12.1315 24.5634 11.5161 24.3562 10.9826C24.1423 10.4164 23.8128 9.90925 23.3818 9.48811C22.9602 9.05972 22.4499 8.72715 21.89 8.51684C21.3533 8.30964 20.741 8.16459 19.8454 8.12523C18.943 8.08223 18.6566 8.07239 16.3685 8.07239C14.0805 8.07239 13.7935 8.08223 12.8947 8.1216C11.9991 8.16097 11.3837 8.30601 10.8501 8.51321C10.284 8.72715 9.77683 9.05661 9.35517 9.48811C8.9273 9.90977 8.59473 10.42 8.3839 10.9795C8.1767 11.5161 8.03166 12.1284 7.99229 13.024C7.94929 13.9264 7.93945 14.2129 7.93945 16.5014C7.93945 18.79 7.94929 19.0765 7.98866 19.9752C8.02803 20.8709 8.17307 21.4868 8.3808 22.0198C8.59473 22.586 8.9273 23.0931 9.35517 23.5148C9.77683 23.9426 10.2871 24.2757 10.847 24.486C11.3837 24.6932 11.996 24.8383 12.8916 24.8777C13.7904 24.9175 14.0768 24.9274 16.3654 24.9274C18.654 24.9274 18.9399 24.9175 19.8392 24.8777C20.7348 24.8383 21.3497 24.6927 21.8832 24.4855ZM16.3716 23.4122C14.1224 23.4122 13.8525 23.4024 12.9667 23.363C12.1436 23.3267 11.6992 23.1884 11.4029 23.0734C11.0377 22.9382 10.7051 22.7243 10.4347 22.4446C10.155 22.1711 9.94052 21.8421 9.80584 21.4764C9.69084 21.1801 9.55253 20.732 9.51627 19.9125C9.4769 19.0236 9.46706 18.7569 9.46706 16.5077C9.46706 14.2585 9.4769 13.9886 9.51627 13.1033C9.55253 12.2802 9.69084 11.8357 9.80584 11.5394C9.94104 11.1737 10.155 10.8412 10.4383 10.5713C10.7113 10.2915 11.0408 10.0776 11.406 9.9424C11.7023 9.8274 12.1504 9.6891 12.9698 9.65284C13.8588 9.61347 14.1255 9.60363 16.3742 9.60363C18.6229 9.60363 18.8933 9.61347 19.7791 9.65284C20.6022 9.6891 21.0467 9.8274 21.343 9.9424C21.7082 10.0776 22.0407 10.2915 22.3106 10.5713C22.5903 10.8448 22.8048 11.1737 22.9395 11.5394C23.0545 11.8357 23.1928 12.2833 23.229 13.1033C23.2684 13.9922 23.2782 14.259 23.2782 16.5077C23.2782 18.7563 23.2684 19.02 23.229 19.9089C23.1928 20.732 23.0545 21.1765 22.9395 21.4728C22.6561 22.2073 22.0733 22.7901 21.3393 23.0729C21.043 23.1879 20.5955 23.3262 19.7755 23.3625C18.8866 23.4019 18.6203 23.4122 16.3716 23.4122Z" fill="white"/>
<path d="M16.3687 12.1709C13.9781 12.1709 12.0386 14.1103 12.0386 16.501C12.0386 18.8916 13.9781 20.831 16.3687 20.831C18.7593 20.831 20.6982 18.8916 20.6982 16.501C20.6982 14.1103 18.7588 12.1709 16.3687 12.1709ZM16.3687 19.3091C14.8178 19.3091 13.56 18.0514 13.56 16.5004C13.56 14.9495 14.8178 13.6918 16.3687 13.6918C17.9196 13.6918 19.1773 14.9495 19.1773 16.5004C19.1773 18.0514 17.9196 19.3091 16.3687 19.3091Z" fill="white"/>
<path d="M21.8792 11.9997C21.8792 11.4413 21.4265 10.9891 20.868 10.9891C20.3096 10.9891 19.8574 11.4418 19.8574 11.9997C19.8574 12.5576 20.3101 13.0104 20.868 13.0104C21.4259 13.0104 21.8792 12.5581 21.8792 11.9997Z" fill="white"/>
</svg>
