<svg width="48" height="48" viewBox="0 0 48 48" fill="none" xmlns="http://www.w3.org/2000/svg">
<rect width="48" height="48" rx="24" fill="#153B4F" fill-opacity="0.2"/>
<g clip-path="url(#clip0_162_575)">
<path d="M23.9996 28.791L28.9486 23.95C30.2706 22.628 30.9996 20.87 30.9996 19C30.9996 17.13 30.2706 15.373 28.9486 14.05C27.6276 12.728 25.8696 12 23.9996 12C22.1296 12 20.3716 12.728 19.0496 14.05C16.3206 16.779 16.3206 21.22 19.0536 23.953L23.9996 28.791ZM19.7566 14.757C20.8906 13.624 22.3976 13 23.9996 13C25.6016 13 27.1086 13.624 28.2416 14.757C29.3756 15.89 29.9996 17.397 29.9996 19C29.9996 20.603 29.3756 22.109 28.2456 23.239L23.9996 27.393L19.7566 23.243C17.4176 20.904 17.4176 17.096 19.7566 14.757ZM23.9996 21.98C25.6476 21.98 26.9896 20.639 26.9896 18.99C26.9896 17.341 25.6476 16 23.9996 16C22.3516 16 21.0096 17.341 21.0096 18.99C21.0096 20.639 22.3516 21.98 23.9996 21.98ZM23.9996 17C25.0976 17 25.9896 17.893 25.9896 18.99C25.9896 20.087 25.0966 20.98 23.9996 20.98C22.9026 20.98 22.0096 20.087 22.0096 18.99C22.0096 17.893 22.9026 17 23.9996 17ZM35.9426 28.846L23.9996 36.012L12.0566 28.846L17.7206 25.448L18.5036 26.214L14.0006 28.846L24.0006 34.846L34.0006 28.846L29.5186 26.192L30.2796 25.448L35.9446 28.847L35.9426 28.846Z" fill="#153B4F"/>
</g>
<defs>
<clipPath id="clip0_162_575">
<rect width="24" height="24" fill="white" transform="translate(12 12)"/>
</clipPath>
</defs>
</svg>
