<svg width="24" height="25" viewBox="0 0 24 25" fill="none" xmlns="http://www.w3.org/2000/svg">
<g clip-path="url(#clip0_482_1917)">
<path d="M6 8.5C6 7.96957 6.21071 7.46086 6.58579 7.08579C6.96086 6.71071 7.46957 6.5 8 6.5H16C16.5304 6.5 17.0391 6.71071 17.4142 7.08579C17.7893 7.46086 18 7.96957 18 8.5V18.5C18 19.0304 17.7893 19.5391 17.4142 19.9142C17.0391 20.2893 16.5304 20.5 16 20.5H8C7.46957 20.5 6.96086 20.2893 6.58579 19.9142C6.21071 19.5391 6 19.0304 6 18.5V8.5Z" stroke="#153B4F" stroke-width="1.5" stroke-linecap="round" stroke-linejoin="round"/>
<path d="M9 6.5V5.5C9 4.96957 9.21071 4.46086 9.58579 4.08579C9.96086 3.71071 10.4696 3.5 11 3.5H13C13.5304 3.5 14.0391 3.71071 14.4142 4.08579C14.7893 4.46086 15 4.96957 15 5.5V6.5" stroke="#153B4F" stroke-width="1.5" stroke-linecap="round" stroke-linejoin="round"/>
<path d="M6 10.5H18" stroke="#153B4F" stroke-width="1.5" stroke-linecap="round" stroke-linejoin="round"/>
<path d="M6 16.5H18" stroke="#153B4F" stroke-width="1.5" stroke-linecap="round" stroke-linejoin="round"/>
<path d="M9 20.5V21.5" stroke="#153B4F" stroke-width="1.5" stroke-linecap="round" stroke-linejoin="round"/>
<path d="M15 20.5V21.5" stroke="#153B4F" stroke-width="1.5" stroke-linecap="round" stroke-linejoin="round"/>
</g>
<defs>
<clipPath id="clip0_482_1917">
<rect width="24" height="24" fill="white" transform="translate(0 0.5)"/>
</clipPath>
</defs>
</svg>
