<svg width="119" height="37" viewBox="0 0 119 37" fill="none" xmlns="http://www.w3.org/2000/svg">
<path fill-rule="evenodd" clip-rule="evenodd" d="M115.831 9.84073C115.845 9.63841 117.044 7.91434 117.057 7.3078C117.071 6.70166 116.721 6.27054 115.805 6.32475C114.889 6.37853 112.154 6.87668 111.211 7.09224C110.267 7.3078 91.5415 1.91921 84.9944 1.08387C78.4469 0.24852 67.6156 -0.559517 62.3346 0.51828C57.0535 1.59567 40.8472 8.70873 40.4294 8.99173C40.0115 9.27473 39.9714 9.27473 39.9714 9.27473C39.9714 9.27473 25.6372 10.4332 20.4104 11.3223C15.1832 12.2115 5.96832 15.7817 3.50324 16.9939C1.03774 18.2066 0.499055 19.1359 0.350935 19.4863C0.202815 19.8368 0.579736 22.1674 0.37783 23.2315C0.175509 24.2957 0.175508 26.0201 0.472162 26.788C0.768401 27.556 0.916522 27.3131 1.13208 27.8116C1.34764 28.3102 1.65753 29.6842 1.44197 29.7517C1.22641 29.8191 -0.21507 30.4522 0.0273831 30.87C0.269836 31.2875 5.56451 32.163 6.83056 32.2842C8.09703 32.4054 8.68992 32.446 8.68992 32.446C8.68992 32.446 8.64937 33.2275 8.89183 33.2275C9.13428 33.2275 12.8662 32.5672 12.8662 32.5672L36.7922 32.163C36.7922 32.163 84.8868 32.0016 85.1831 31.705C85.4797 31.4087 85.5873 30.9507 85.5873 30.9507L87.4194 30.7889L108.058 28.7682C108.058 28.7682 108.112 29.954 108.274 29.8191C108.435 29.6842 115.468 27.8253 116.141 27.3135C116.815 26.8013 116.788 27.071 116.869 26.5319C116.95 25.9932 116.896 25.8046 117.084 25.6428C117.273 25.481 118.957 21.7495 118.997 19.7826C119.038 17.8156 118.593 15.485 118.405 15.1619C118.216 14.8383 117.408 14.0166 117.408 14.0166C117.408 14.0166 116.842 11.7262 116.451 10.9314C116.06 10.1366 115.831 9.84073 115.831 9.84073Z" fill="#153B4F"/>
<path fill-rule="evenodd" clip-rule="evenodd" d="M6.00989 18.4633C3.70617 19.7567 1.1902 20.1709 1.01188 19.851C0.662266 19.2246 8.13777 15.287 9.18247 15.8096C9.77909 16.1075 6.11995 18.4017 6.00989 18.4633Z" fill="white"/>
<path fill-rule="evenodd" clip-rule="evenodd" d="M44.7539 10.8276C44.7539 10.8276 55.1542 4.95414 60.3814 3.68768C65.6082 2.42121 75.8467 2.54244 77.2749 2.67732C78.7027 2.81178 79.7805 3.06789 79.7805 3.06789L77.9216 8.64514C77.9216 8.64514 47.7043 10.7333 46.5996 10.7602C45.4949 10.7871 44.7539 10.8276 44.7539 10.8276Z" fill="white"/>
<path fill-rule="evenodd" clip-rule="evenodd" d="M81.1107 3.28402L79.8848 8.4707C79.8848 8.4707 85.8931 7.99904 86.8092 7.60846C87.7256 7.21789 88.9242 5.5203 88.9242 5.26461C88.9242 5.0085 81.1107 3.28402 81.1107 3.28402Z" fill="white"/>
<path fill-rule="evenodd" clip-rule="evenodd" d="M116.449 10.9301C116.058 10.1353 115.829 9.83943 115.829 9.83943C115.829 9.83943 115.739 9.99789 114.163 10.6715C112.587 11.345 111.32 11.52 111.213 12.0993C111.105 12.6785 112.182 13.8507 112.977 14.1606C113.772 14.4704 117.405 14.0149 117.405 14.0149C117.405 14.0149 116.839 11.7249 116.449 10.9301Z" fill="white"/>
<path fill-rule="evenodd" clip-rule="evenodd" d="M25.7927 31.7224C23.021 34.5209 18.5058 34.5437 15.7069 31.7725C12.9079 29.0008 12.8855 24.4856 15.6564 21.6866C18.428 18.8877 22.9432 18.8653 25.7426 21.6366C28.5416 24.4078 28.5639 28.923 25.7927 31.7224ZM13.8359 33.662C17.6783 37.4668 23.8779 37.4362 27.6826 33.5929C31.487 29.7501 31.456 23.5514 27.6135 19.7466C23.7711 15.9422 17.5716 15.9729 13.7672 19.8153C9.96204 23.6581 9.99349 29.8572 13.8359 33.662Z" fill="#153B4F"/>
<path fill-rule="evenodd" clip-rule="evenodd" d="M20.6829 18.3504C25.2957 18.3277 29.0545 22.0489 29.0777 26.6617C29.1005 31.2753 25.3789 35.0338 20.7656 35.0565C16.1528 35.0793 12.394 31.3581 12.3712 26.7449C12.3484 22.132 16.0696 18.3732 20.6829 18.3504Z" fill="white"/>
<path fill-rule="evenodd" clip-rule="evenodd" d="M20.6862 19.344C16.6216 19.3643 13.3431 22.6759 13.3634 26.7401C13.3836 30.8051 16.6948 34.0836 20.759 34.0629C24.824 34.043 28.1025 30.7318 28.0823 26.6668C28.062 22.6022 24.7504 19.3237 20.6862 19.344Z" fill="#153B4F"/>
<path fill-rule="evenodd" clip-rule="evenodd" d="M22.1943 28.6818C23.1894 27.6768 23.1815 26.0554 22.1765 25.0607C21.1715 24.0657 19.5501 24.0735 18.5554 25.0785C17.5604 26.0835 17.5687 27.7045 18.5732 28.6996C19.5778 29.6946 21.1993 29.686 22.1943 28.6818Z" fill="#153B4F"/>
<path fill-rule="evenodd" clip-rule="evenodd" d="M19.8862 28.083L20.8816 28.0776L21.5817 27.3709L21.5767 26.3751L20.8696 25.675L19.8742 25.6796L19.1733 26.3871L19.1783 27.3821L19.8862 28.083ZM19.8911 34.7773L19.4261 29.2084L15.1956 32.8601L14.4483 32.1199L18.057 27.8538L12.4843 27.4438L12.4785 26.3924L18.0471 25.927L14.3966 21.6969L15.1364 20.9496L19.4029 24.5583L19.8125 18.9848L20.8638 18.9802L21.3293 24.5488L25.5598 20.8975L26.307 21.6377L22.6984 25.9042L28.2711 26.3138L28.2765 27.3656L22.7079 27.8306L26.3588 32.0607L25.619 32.8079L21.3525 29.1993L20.9429 34.772L19.8911 34.7773Z" fill="white"/>
<path fill-rule="evenodd" clip-rule="evenodd" d="M102.293 31.7224C99.5208 34.5209 95.0057 34.5437 92.2067 31.7725C89.4077 29.0008 89.3854 24.4856 92.1562 21.6866C94.9279 18.8877 99.4431 18.8653 102.242 21.6366C105.041 24.4078 105.064 28.923 102.293 31.7224ZM90.3358 33.662C94.1782 37.4668 100.378 37.4362 104.182 33.5929C107.987 29.7501 107.956 23.5514 104.113 19.7466C100.271 15.9422 94.0714 15.9729 90.2671 19.8153C86.4623 23.6581 86.4933 29.8572 90.3358 33.662Z" fill="#153B4F"/>
<path fill-rule="evenodd" clip-rule="evenodd" d="M97.1848 18.3504C101.798 18.3277 105.557 22.0489 105.58 26.6617C105.602 31.2753 101.881 35.0338 97.2676 35.0565C92.6548 35.0793 88.8959 31.3581 88.8732 26.7449C88.8504 22.132 92.5716 18.3732 97.1848 18.3504Z" fill="white"/>
<path fill-rule="evenodd" clip-rule="evenodd" d="M97.1882 19.343C93.1236 19.3633 89.8451 22.6749 89.8653 26.7391C89.8856 30.8041 93.1968 34.0826 97.261 34.0619C101.326 34.0421 104.604 30.7309 104.584 26.6658C104.564 22.6012 101.252 19.3227 97.1882 19.343Z" fill="#153B4F"/>
<path fill-rule="evenodd" clip-rule="evenodd" d="M98.7002 28.6818C99.6952 27.6768 99.6874 26.0554 98.6824 25.0607C97.6774 24.0657 96.0559 24.0735 95.0613 25.0785C94.0663 26.0835 94.0745 27.7045 95.0791 28.6996C96.0837 29.6946 97.7051 29.686 98.7002 28.6818Z" fill="#153B4F"/>
<path fill-rule="evenodd" clip-rule="evenodd" d="M96.3901 28.083L97.3855 28.0776L98.0856 27.3709L98.0806 26.3751L97.3735 25.675L96.3781 25.6796L95.6772 26.3871L95.6822 27.3821L96.3901 28.083ZM96.395 34.7773L95.93 29.2084L91.6995 32.8601L90.9523 32.1199L94.5609 27.8538L88.9882 27.4438L88.9824 26.3924L94.551 25.927L90.9005 21.6969L91.6403 20.9496L95.9068 24.5583L96.3164 18.9848L97.3677 18.9802L97.8332 24.5488L102.064 20.8975L102.811 21.6377L99.2023 25.9042L104.775 26.3138L104.78 27.3656L99.2118 27.8306L102.863 32.0607L102.123 32.8079L97.8564 29.1993L97.4468 34.772L96.395 34.7773Z" fill="white"/>
<path fill-rule="evenodd" clip-rule="evenodd" d="M40.1191 11.7495C40.2809 11.6957 41.1564 11.3722 42.7998 10.8736C44.4436 10.3755 45.1304 10.3618 45.1304 10.3618C45.1304 10.3618 45.1304 9.35146 45.6832 8.8529C46.2355 8.35475 47.9463 7.92363 48.7949 7.81565C50.6257 7.58312 50.6791 10.2104 50.4251 10.591C50.2902 10.7929 48.943 11.3184 48.2695 11.4529C47.5959 11.5877 46.2624 11.332 46.1143 11.3184C45.9662 11.3047 40.1191 11.7495 40.1191 11.7495Z" fill="#153B4F"/>
</svg>
