<svg width="50" height="40" viewBox="0 0 50 40" fill="none" xmlns="http://www.w3.org/2000/svg">
<path fill-rule="evenodd" clip-rule="evenodd" d="M25.5795 27.4653C23.8161 29.0473 21.5411 30.0002 19.0578 30.0002C13.4549 30.0002 8.91284 25.1499 8.91284 19.1668C8.91284 13.1837 13.4549 8.3335 19.0578 8.3335C21.5411 8.3335 23.8161 9.28633 25.5795 10.8683C27.3429 9.28633 29.6179 8.3335 32.1012 8.3335C37.7041 8.3335 42.2462 13.1837 42.2462 19.1668C42.2462 25.1499 37.7041 30.0002 32.1012 30.0002C29.6179 30.0002 27.3429 29.0473 25.5795 27.4653Z" fill="#ED0006"/>
<path fill-rule="evenodd" clip-rule="evenodd" d="M25.5796 27.4653C27.7948 25.4781 29.2028 22.498 29.2028 19.1668C29.2028 15.8356 27.7948 12.8556 25.5796 10.8683C27.343 9.28633 29.618 8.3335 32.1013 8.3335C37.7042 8.3335 42.2463 13.1837 42.2463 19.1668C42.2463 25.1499 37.7042 30.0002 32.1013 30.0002C29.618 30.0002 27.343 29.0473 25.5796 27.4653Z" fill="#F9A000"/>
<path fill-rule="evenodd" clip-rule="evenodd" d="M25.5795 27.4652C27.7947 25.4779 29.2027 22.4979 29.2027 19.1667C29.2027 15.8355 27.7947 12.8554 25.5795 10.8682C23.3643 12.8554 21.9563 15.8355 21.9563 19.1667C21.9563 22.4979 23.3643 25.4779 25.5795 27.4652Z" fill="#FF5E00"/>
</svg>
