<svg width="118" height="44" viewBox="0 0 118 44" fill="none" xmlns="http://www.w3.org/2000/svg">
<path fill-rule="evenodd" clip-rule="evenodd" d="M33.0275 12.6159C33.0275 12.6159 18.4372 14.0349 13.3682 15.9331C8.29924 17.8316 6.34214 19.6321 4.97213 21.0413C3.60212 22.4504 3.32834 23.4094 3.19107 23.9185C3.05419 24.4273 3.05419 24.6425 2.89753 24.7209C2.74087 24.7992 2.60398 25.073 2.23211 25.1905C1.86023 25.308 1.74274 25.3277 1.44919 25.5429C1.15564 25.7582 0.235839 26.5802 0.118344 26.7757C0.000849634 26.9715 -0.0478239 30.0248 0.0597844 30.142C0.167393 30.2595 0.235839 30.3279 0.245725 30.3967C0.255611 30.4652 0.578434 33.6257 0.470826 33.8216C0.363218 34.0174 0.0890644 34.4771 0.157508 34.6239C0.226332 34.7706 2.01689 36.3658 2.54542 36.6593C3.07396 36.9532 7.45776 37.7263 8.41673 37.8825C9.37608 38.0392 9.53236 38.0685 9.53236 38.0685C9.53236 38.0685 9.46392 38.6947 9.63997 38.6753C9.81602 38.6556 12.1941 38.3035 12.1941 38.3035L30.6111 38.1666L86.3898 37.6574L107.292 37.4228L112.85 36.6007L113.535 36.1699C113.535 36.1699 114.857 36.1604 114.974 36.1209C115.091 36.0821 115.913 34.3105 115.913 34.3105C115.913 34.3105 117.372 32.4611 117.567 32.0405C117.763 31.6196 117.753 31.2378 117.646 30.8564C117.538 30.4747 118.086 26.4038 117.988 25.484C117.89 24.5642 117.088 23.7813 116.794 23.5269C116.501 23.2721 114.837 22.4896 114.837 22.4896C114.837 22.4896 112.939 18.5556 111.06 16.5787C109.181 14.6023 108.437 13.9171 108.437 13.9171C108.437 13.9171 110.434 12.9387 110.747 12.6353C111.06 12.3318 111.109 12.0383 110.933 11.7839C110.757 11.5295 110.512 11.2751 110.287 11.2459C110.062 11.2162 104.601 11.2067 104.601 11.2067C104.601 11.2067 97.7419 6.76357 93.2209 4.7673C88.7002 2.77104 85.5293 2.00789 85.5293 2.00789C85.5293 2.00789 85.4658 1.46947 85.5784 1.34247C85.6909 1.21509 86.1214 0.578945 86.0727 0.544724C86.0237 0.510502 85.5883 0.319618 85.4461 0.33939C85.3042 0.359165 84.2966 0.970592 84.2966 0.970592C84.2966 0.970592 83.4403 0.867546 83.2593 0.931427C83.0779 0.994926 82.5642 1.28848 82.5642 1.28848C82.5642 1.28848 75.2792 -0.301693 66.4328 0.0507889C57.5865 0.402893 49.484 2.10561 48.5052 2.43832C47.5269 2.77104 47.2135 3.12314 47.2135 3.12314C39.6859 7.3366 37.7326 9.62337 33.0275 12.6159Z" fill="#153B4F"/>
<path fill-rule="evenodd" clip-rule="evenodd" d="M9.53453 19.3254C7.42305 19.6007 3.77463 23.1484 4.29898 25.3336C4.41648 25.823 5.19939 25.823 5.94315 25.5196C6.6869 25.2165 8.50711 23.5332 9.40715 22.4081C10.3076 21.2825 10.5133 20.3042 10.4448 19.8734C10.376 19.4429 10.1315 19.3106 9.92085 19.2962C9.71058 19.2813 9.53453 19.3254 9.53453 19.3254Z" fill="white"/>
<path fill-rule="evenodd" clip-rule="evenodd" d="M107.015 21.5662C108.13 22.4274 109.187 22.7502 110.655 22.9654C112.123 23.1807 114.207 22.6913 114.227 22.5837C114.247 22.4761 112.877 20.5095 111.888 19.6969C110.788 18.7927 109.553 17.5539 108.052 17.5539C106.604 17.5539 105.978 17.4367 105.508 18.3957C105.038 19.3547 105.899 20.7049 107.015 21.5662Z" fill="white"/>
<path fill-rule="evenodd" clip-rule="evenodd" d="M116.829 31.0964C116.28 31.2987 112.776 32.095 112.768 32.1045C112.68 32.2121 112.239 33.0045 112.474 33.0535C112.709 33.1026 116.692 32.0261 116.897 31.933C117.103 31.8402 117.074 31.5809 117.069 31.3999C117.064 31.2189 116.986 31.1037 116.947 31.0866C116.907 31.0694 116.829 31.0964 116.829 31.0964Z" fill="white"/>
<path fill-rule="evenodd" clip-rule="evenodd" d="M88.3242 4.71448C88.3242 4.71448 95.7127 7.84577 99.4896 10.312C103.267 12.7779 103.6 13.0908 103.717 13.0908C103.835 13.0908 105.41 12.8269 105.674 12.7486C105.939 12.6703 106.095 12.641 106.085 12.5722C106.075 12.5037 104.602 11.2075 104.602 11.2075C104.602 11.2075 97.742 6.76436 93.221 4.76809C91.6297 4.06541 90.2057 3.51558 89.028 3.09807C89.0079 3.24409 88.9744 3.40265 88.9212 3.56957C88.6961 4.27416 88.3242 4.71448 88.3242 4.71448Z" fill="white"/>
<path fill-rule="evenodd" clip-rule="evenodd" d="M91.5421 11.5537C90.5638 10.673 86.7081 7.26758 80.7581 5.74091C80.1121 5.57512 78.8116 5.32492 77.1717 5.05761L75.8906 13.6724C84.7556 13.3385 92.087 13.04 92.1486 12.9628C92.3053 12.767 92.5209 12.4343 91.5421 11.5537Z" fill="white"/>
<path fill-rule="evenodd" clip-rule="evenodd" d="M72.0631 13.816L73.7453 4.54797C70.382 4.09206 66.5971 3.70916 64.0248 3.74566C64.0248 3.74566 55.0609 3.70611 51.3228 4.82174C47.5846 5.93737 41.4004 11.6326 41.4004 11.6326C41.4004 11.6326 43.0639 11.1239 43.6902 11.1824C44.3165 11.2414 44.7861 11.7307 45.0796 12.4349C45.3732 13.1399 44.9621 14.7837 44.9621 14.7837C44.9621 14.7837 59.2212 14.2913 72.0631 13.816Z" fill="white"/>
<path fill-rule="evenodd" clip-rule="evenodd" d="M34.8076 13.7666C34.9053 13.7468 36.432 12.3574 39.8572 9.57825C43.2821 6.79906 47.9008 3.98109 47.9008 3.98109C47.9008 3.98109 47.7442 3.83394 47.47 3.54039C47.3643 3.42708 47.2704 3.27917 47.1932 3.13696C39.6835 7.34243 37.7294 9.62768 33.0292 12.6171C33.0292 12.6171 32.5862 13.2578 32.8798 13.5708C33.1733 13.8841 34.7099 13.786 34.8076 13.7666Z" fill="white"/>
<path fill-rule="evenodd" clip-rule="evenodd" d="M95.9864 43.8286C101.359 43.8286 105.74 39.4471 105.74 34.0747C105.74 28.7026 101.359 24.3211 95.9864 24.3211C90.6143 24.3211 86.2324 28.7026 86.2324 34.0747C86.2324 39.4471 90.6143 43.8286 95.9864 43.8286Z" fill="#153B4F"/>
<path fill-rule="evenodd" clip-rule="evenodd" d="M95.9826 41.2607C99.9417 41.2607 103.17 38.0317 103.17 34.073C103.17 30.114 99.9417 26.885 95.9826 26.885C92.0236 26.885 88.7949 30.114 88.7949 34.073C88.7949 38.0317 92.0236 41.2607 95.9826 41.2607Z" fill="white"/>
<path fill-rule="evenodd" clip-rule="evenodd" d="M95.9838 40.646C99.6033 40.646 102.556 37.6938 102.556 34.0743C102.556 30.4548 99.6033 27.5029 95.9838 27.5029C92.3643 27.5029 89.4121 30.4548 89.4121 34.0743C89.4121 37.6938 92.3643 40.646 95.9838 40.646Z" fill="#153B4F"/>
<path fill-rule="evenodd" clip-rule="evenodd" d="M94.5645 27.2622L95.4135 34.0742H95.985L95.3093 27.1527L94.5645 27.2622Z" fill="white"/>
<path fill-rule="evenodd" clip-rule="evenodd" d="M97.4069 27.2622L96.5578 34.0742H95.9863L96.662 27.1527L97.4069 27.2622Z" fill="white"/>
<path fill-rule="evenodd" clip-rule="evenodd" d="M90.1621 30.263L95.579 34.4795L95.9832 34.0753L90.6116 29.6588L90.1621 30.263Z" fill="white"/>
<path fill-rule="evenodd" clip-rule="evenodd" d="M92.1706 28.2531L96.3871 33.67L95.9829 34.0742L91.5664 28.7022L92.1706 28.2531Z" fill="white"/>
<path fill-rule="evenodd" clip-rule="evenodd" d="M89.1743 35.4946L95.986 34.6455V34.074L89.0645 34.7494L89.1743 35.4946Z" fill="white"/>
<path fill-rule="evenodd" clip-rule="evenodd" d="M89.1743 32.6541L95.986 33.5032V34.0747L89.0645 33.399L89.1743 32.6541Z" fill="white"/>
<path fill-rule="evenodd" clip-rule="evenodd" d="M92.1706 39.8955L96.3871 34.4786L95.9829 34.0744L91.5664 39.4461L92.1706 39.8955Z" fill="white"/>
<path fill-rule="evenodd" clip-rule="evenodd" d="M90.1621 37.8855L95.579 33.669L95.9832 34.0732L90.6112 38.4897L90.1621 37.8855Z" fill="white"/>
<path fill-rule="evenodd" clip-rule="evenodd" d="M97.4065 40.8857L96.5575 34.0741H95.9863L96.6616 40.9956L97.4065 40.8857Z" fill="white"/>
<path fill-rule="evenodd" clip-rule="evenodd" d="M94.5645 40.8857L95.4132 34.0741H95.9847L95.3093 40.9956L94.5645 40.8857Z" fill="white"/>
<path fill-rule="evenodd" clip-rule="evenodd" d="M101.807 37.8855L96.3905 33.669L95.9863 34.0732L101.358 38.4897L101.807 37.8855Z" fill="white"/>
<path fill-rule="evenodd" clip-rule="evenodd" d="M99.7985 39.8965L95.582 34.4796L95.9862 34.0754L100.403 39.447L99.7985 39.8965Z" fill="white"/>
<path fill-rule="evenodd" clip-rule="evenodd" d="M102.798 32.6536L95.9863 33.5027V34.0742L102.908 33.3989L102.798 32.6536Z" fill="white"/>
<path fill-rule="evenodd" clip-rule="evenodd" d="M102.798 35.4946L95.9863 34.6459V34.0744L102.908 34.7497L102.798 35.4946Z" fill="white"/>
<path fill-rule="evenodd" clip-rule="evenodd" d="M99.7985 28.2531L95.582 33.67L95.9862 34.0742L100.403 28.7025L99.7985 28.2531Z" fill="white"/>
<path fill-rule="evenodd" clip-rule="evenodd" d="M101.807 30.263L96.3905 34.4795L95.9863 34.0753L101.358 29.6588L101.807 30.263Z" fill="white"/>
<path fill-rule="evenodd" clip-rule="evenodd" d="M95.9832 36.3203C97.2198 36.3203 98.2282 35.3119 98.2282 34.0754C98.2282 32.8388 97.2198 31.83 95.9832 31.83C94.7467 31.83 93.7383 32.8388 93.7383 34.0754C93.7383 35.3119 94.7467 36.3203 95.9832 36.3203Z" fill="white"/>
<path fill-rule="evenodd" clip-rule="evenodd" d="M95.9872 34.9424C96.4652 34.9424 96.8549 34.5526 96.8549 34.0743C96.8549 33.5963 96.4652 33.2066 95.9872 33.2066C95.5093 33.2066 95.1191 33.5963 95.1191 34.0743C95.1191 34.5526 95.5093 34.9424 95.9872 34.9424Z" fill="#153B4F"/>
<path fill-rule="evenodd" clip-rule="evenodd" d="M20.2032 43.8286C25.5752 43.8286 29.9571 39.4471 29.9571 34.0747C29.9571 28.7026 25.5752 24.3211 20.2032 24.3211C14.8307 24.3211 10.4492 28.7026 10.4492 34.0747C10.4492 39.4471 14.8307 43.8286 20.2032 43.8286Z" fill="#153B4F"/>
<path fill-rule="evenodd" clip-rule="evenodd" d="M20.2033 41.2607C24.1624 41.2607 27.391 38.0317 27.391 34.073C27.391 30.114 24.1624 26.885 20.2033 26.885C16.2443 26.885 13.0156 30.114 13.0156 34.073C13.0156 38.0317 16.2443 41.2607 20.2033 41.2607Z" fill="white"/>
<path fill-rule="evenodd" clip-rule="evenodd" d="M20.2084 40.646C23.828 40.646 26.7801 37.6938 26.7801 34.0743C26.7801 30.4548 23.828 27.5029 20.2084 27.5029C16.5889 27.5029 13.6367 30.4548 13.6367 34.0743C13.6367 37.6938 16.5889 40.646 20.2084 40.646Z" fill="#153B4F"/>
<path fill-rule="evenodd" clip-rule="evenodd" d="M18.7852 27.2622L19.6342 34.0742H20.2057L19.53 27.1527L18.7852 27.2622Z" fill="white"/>
<path fill-rule="evenodd" clip-rule="evenodd" d="M21.6257 27.2622L20.7766 34.0742H20.2051L20.8808 27.1527L21.6257 27.2622Z" fill="white"/>
<path fill-rule="evenodd" clip-rule="evenodd" d="M14.3848 30.2625L19.8017 34.479L20.2059 34.0748L14.8342 29.6583L14.3848 30.2625Z" fill="white"/>
<path fill-rule="evenodd" clip-rule="evenodd" d="M16.3913 28.2536L20.6078 33.6705L20.2036 34.0747L15.7871 28.7027L16.3913 28.2536Z" fill="white"/>
<path fill-rule="evenodd" clip-rule="evenodd" d="M13.3947 35.4946L20.2067 34.6455V34.074L13.2852 34.7494L13.3947 35.4946Z" fill="white"/>
<path fill-rule="evenodd" clip-rule="evenodd" d="M13.3947 32.6536L20.2067 33.5027V34.0742L13.2852 33.3985L13.3947 32.6536Z" fill="white"/>
<path fill-rule="evenodd" clip-rule="evenodd" d="M16.3913 39.8955L20.6078 34.4786L20.2036 34.0744L15.7871 39.4461L16.3913 39.8955Z" fill="white"/>
<path fill-rule="evenodd" clip-rule="evenodd" d="M14.3848 37.8855L19.8017 33.669L20.2059 34.0732L14.8342 38.4897L14.3848 37.8855Z" fill="white"/>
<path fill-rule="evenodd" clip-rule="evenodd" d="M21.6253 40.8857L20.7762 34.0741H20.2051L20.8804 40.9956L21.6253 40.8857Z" fill="white"/>
<path fill-rule="evenodd" clip-rule="evenodd" d="M18.7852 40.8857L19.6342 34.0741H20.2054L19.5304 40.9956L18.7852 40.8857Z" fill="white"/>
<path fill-rule="evenodd" clip-rule="evenodd" d="M26.0262 37.8855L20.6093 33.669L20.2051 34.0732L25.5767 38.4897L26.0262 37.8855Z" fill="white"/>
<path fill-rule="evenodd" clip-rule="evenodd" d="M24.0153 39.8965L19.7988 34.4796L20.203 34.0754L24.6195 39.447L24.0153 39.8965Z" fill="white"/>
<path fill-rule="evenodd" clip-rule="evenodd" d="M27.0171 32.6536L20.2051 33.5027V34.0742L27.1266 33.3989L27.0171 32.6536Z" fill="white"/>
<path fill-rule="evenodd" clip-rule="evenodd" d="M27.0171 35.4946L20.2051 34.6459V34.0744L27.1266 34.7497L27.0171 35.4946Z" fill="white"/>
<path fill-rule="evenodd" clip-rule="evenodd" d="M24.0173 28.2536L19.8008 33.6705L20.205 34.0747L24.6215 28.703L24.0173 28.2536Z" fill="white"/>
<path fill-rule="evenodd" clip-rule="evenodd" d="M26.0262 30.263L20.6093 34.4795L20.2051 34.0753L25.5767 29.6588L26.0262 30.263Z" fill="white"/>
<path fill-rule="evenodd" clip-rule="evenodd" d="M20.2059 36.3203C21.4424 36.3203 22.4508 35.3119 22.4508 34.0754C22.4508 32.8388 21.4424 31.83 20.2059 31.83C18.9693 31.83 17.9609 32.8388 17.9609 34.0754C17.9609 35.3119 18.9693 36.3203 20.2059 36.3203Z" fill="white"/>
<path fill-rule="evenodd" clip-rule="evenodd" d="M20.2021 34.9424C20.68 34.9424 21.0702 34.5526 21.0702 34.0743C21.0702 33.5963 20.68 33.2066 20.2021 33.2066C19.7241 33.2066 19.334 33.5963 19.334 34.0743C19.334 34.5526 19.7241 34.9424 20.2021 34.9424Z" fill="#153B4F"/>
</svg>
