<svg width="50" height="40" viewBox="0 0 50 40" fill="none" xmlns="http://www.w3.org/2000/svg">
<path fill-rule="evenodd" clip-rule="evenodd" d="M22.3867 31.1239L22.7306 28.5272L21.9644 28.5059H18.3059L20.8485 9.34382C20.8564 9.2858 20.882 9.23193 20.9194 9.19362C20.957 9.1553 21.0049 9.13428 21.055 9.13428H27.2238C29.2719 9.13428 30.6852 9.64074 31.423 10.6405C31.769 11.1095 31.9893 11.5998 32.096 12.1391C32.2078 12.7051 32.2096 13.3813 32.1006 14.2061L32.0926 14.2661V14.7947L32.4386 15.0277C32.7298 15.2114 32.9614 15.4216 33.139 15.6622C33.4348 16.0634 33.6262 16.5731 33.7071 17.1772C33.7907 17.7986 33.7631 18.5383 33.6262 19.3756C33.4684 20.3386 33.2132 21.1775 32.8686 21.8637C32.5517 22.4961 32.1479 23.0207 31.6684 23.4271C31.2106 23.8133 30.6668 24.1065 30.0519 24.2942C29.456 24.4786 28.7766 24.5716 28.0314 24.5716H27.5513C27.2082 24.5716 26.8747 24.7185 26.6129 24.9819C26.3504 25.2508 26.1769 25.6183 26.1237 26.0201L26.0874 26.2539L25.4797 30.8309L25.4522 30.9988C25.4448 31.052 25.4323 31.0785 25.4139 31.0965C25.3975 31.1129 25.3739 31.1239 25.3509 31.1239H22.3867Z" fill="#28356A"/>
<path fill-rule="evenodd" clip-rule="evenodd" d="M32.7669 14.3271C32.7487 14.4671 32.7275 14.61 32.7039 14.757C31.8904 19.7217 29.1071 21.4369 25.5525 21.4369H23.7425C23.3078 21.4369 22.9414 21.812 22.8738 22.3217L21.6846 31.2871C21.6406 31.6219 21.8576 31.9235 22.1417 31.9235H25.3518C25.7319 31.9235 26.0548 31.5952 26.1147 31.1496L26.1462 30.9559L26.7506 26.3968L26.7895 26.1468C26.8486 25.6996 27.1723 25.3712 27.5523 25.3712H28.0324C31.1425 25.3712 33.5773 23.8704 34.2889 19.5271C34.586 17.7128 34.4322 16.1977 33.6456 15.1323C33.4076 14.8111 33.1123 14.5444 32.7669 14.3271Z" fill="#298FC2"/>
<path fill-rule="evenodd" clip-rule="evenodd" d="M31.9155 13.9242C31.7912 13.8811 31.663 13.8421 31.5314 13.8068C31.3992 13.7725 31.2638 13.742 31.1243 13.7153C30.6363 13.6216 30.1016 13.5771 29.5288 13.5771H24.6937C24.5745 13.5771 24.4614 13.6091 24.3603 13.6669C24.1372 13.7944 23.9716 14.0453 23.9314 14.3525L22.9028 22.0963L22.8733 22.3221C22.9409 21.8123 23.3073 21.4373 23.7421 21.4373H25.552C29.1066 21.4373 31.8899 19.7212 32.7034 14.7574C32.7277 14.6104 32.7482 14.4675 32.7664 14.3275C32.5607 14.1977 32.3378 14.0867 32.0977 13.9921C32.0384 13.9687 31.9773 13.9461 31.9155 13.9242Z" fill="#22284F"/>
<path fill-rule="evenodd" clip-rule="evenodd" d="M23.9314 14.3519C23.9716 14.0447 24.1372 13.7938 24.3603 13.6672C24.4622 13.6092 24.5745 13.5772 24.6937 13.5772H29.5288C30.1016 13.5772 30.6364 13.6219 31.1243 13.7156C31.2638 13.7421 31.3992 13.7728 31.5315 13.8071C31.663 13.8422 31.7912 13.8814 31.9156 13.9243C31.9773 13.9462 32.0384 13.9689 32.0983 13.9915C32.3383 14.0861 32.5614 14.198 32.7672 14.327C33.0092 12.4923 32.7652 11.2431 31.9307 10.1119C31.0105 8.86645 29.35 8.3335 27.225 8.3335H21.056C20.622 8.3335 20.2517 8.70858 20.1847 9.2192L17.6152 28.5784C17.5646 28.9613 17.8131 29.3069 18.138 29.3069H21.9465L23.9314 14.3519Z" fill="#28356A"/>
</svg>
