<svg width="24" height="25" viewBox="0 0 24 25" fill="none" xmlns="http://www.w3.org/2000/svg">
<g clip-path="url(#clip0_482_1499)">
<path d="M5 5.5C5 6.03043 5.21071 6.53914 5.58579 6.91421C5.96086 7.28929 6.46957 7.5 7 7.5C7.53043 7.5 8.03914 7.28929 8.41421 6.91421C8.78929 6.53914 9 6.03043 9 5.5C9 4.96957 8.78929 4.46086 8.41421 4.08579C8.03914 3.71071 7.53043 3.5 7 3.5C6.46957 3.5 5.96086 3.71071 5.58579 4.08579C5.21071 4.46086 5 4.96957 5 5.5Z" stroke="#153B4F" stroke-width="1.5" stroke-linecap="round" stroke-linejoin="round"/>
<path d="M5 22.5V17.5L4 16.5V12.5C4 12.2348 4.10536 11.9804 4.29289 11.7929C4.48043 11.6054 4.73478 11.5 5 11.5H9C9.26522 11.5 9.51957 11.6054 9.70711 11.7929C9.89464 11.9804 10 12.2348 10 12.5V16.5L9 17.5V22.5" stroke="#153B4F" stroke-width="1.5" stroke-linecap="round" stroke-linejoin="round"/>
<path d="M15 5.5C15 6.03043 15.2107 6.53914 15.5858 6.91421C15.9609 7.28929 16.4696 7.5 17 7.5C17.5304 7.5 18.0391 7.28929 18.4142 6.91421C18.7893 6.53914 19 6.03043 19 5.5C19 4.96957 18.7893 4.46086 18.4142 4.08579C18.0391 3.71071 17.5304 3.5 17 3.5C16.4696 3.5 15.9609 3.71071 15.5858 4.08579C15.2107 4.46086 15 4.96957 15 5.5Z" stroke="#153B4F" stroke-width="1.5" stroke-linecap="round" stroke-linejoin="round"/>
<path d="M15 22.5V18.5H13L15 12.5C15 12.2348 15.1054 11.9804 15.2929 11.7929C15.4804 11.6054 15.7348 11.5 16 11.5H18C18.2652 11.5 18.5196 11.6054 18.7071 11.7929C18.8946 11.9804 19 12.2348 19 12.5L21 18.5H19V22.5" stroke="#153B4F" stroke-width="1.5" stroke-linecap="round" stroke-linejoin="round"/>
</g>
<defs>
<clipPath id="clip0_482_1499">
<rect width="24" height="24" fill="white" transform="translate(0 0.5)"/>
</clipPath>
</defs>
</svg>
