<svg width="115" height="39" viewBox="0 0 115 39" fill="none" xmlns="http://www.w3.org/2000/svg">
<path fill-rule="evenodd" clip-rule="evenodd" d="M111.556 9.99194C111.415 9.99194 104.879 8.62422 104.879 8.62422C98.6999 5.86808 91.7906 2.80125 84.9101 1.28418C83.1655 0.899426 81.4275 0.565563 79.6982 0.418697C77.5664 0.237904 65.3785 -0.265167 59.1836 0.177502C52.9891 0.619759 48.8661 1.30362 46.7342 2.08801C44.6024 2.87241 27.6279 11.5206 27.4467 11.641C27.2659 11.7618 26.8534 11.9227 26.8534 11.9227C26.8534 11.9227 13.7202 13.3207 10.5023 14.4869C7.2845 15.6536 3.55325 17.7151 2.88966 18.2984C2.22607 18.8817 1.29067 20.7521 1.09954 21.5063C0.90882 22.2605 0.90882 22.5621 0.90882 22.5621C0.90882 22.5621 0.134345 23.1355 0.094215 23.4772C0.0536714 23.819 -0.106843 25.9309 0.114491 27.8816C0.335413 29.8326 0.596884 30.5968 0.596884 30.5968C0.596884 30.5968 0.134348 30.8181 0.335411 31.4416C0.536474 32.065 3.09073 32.9702 5.50431 33.2317C7.9179 33.4932 9.92894 33.7546 9.92894 33.7546H10.3513C10.3513 33.7546 10.4622 34.5088 10.5826 34.4786C10.7034 34.4484 12.0107 34.2473 12.0107 34.2473L28.241 34.1166L29.3675 33.5937L81.5177 33.3723L83.2073 33.5734L99.4173 31.3613L100.986 31.8036C100.986 31.8036 109.896 30.2555 111.625 29.7925C113.355 29.33 114.401 27.8419 114.502 27.7008C114.602 27.5601 114.884 27.2987 114.984 26.9168C115.085 26.5345 114.667 26.0418 114.667 26.0418C114.667 26.0418 114.854 21.642 114.643 21.3206C114.432 20.9987 113.486 20.295 113.164 19.108C112.843 17.9215 113.084 15.5886 112.581 13.7584C112.078 11.9281 112.32 10.9828 112.048 10.5203C111.777 10.0577 111.556 9.99194 111.556 9.99194Z" fill="#153B4F"/>
<path fill-rule="evenodd" clip-rule="evenodd" d="M58.6185 12.8716C44.9855 13.4946 32.0025 14.056 32.0215 13.9505C32.0616 13.7292 32.8059 12.3218 35.2393 10.451C37.6732 8.58059 44.0286 4.90023 48.2116 3.5325C51.8093 2.35632 56.5078 1.86442 60.9125 1.71135L58.6185 12.8716Z" fill="white"/>
<path fill-rule="evenodd" clip-rule="evenodd" d="M89.6523 8.69155C89.7528 8.84256 90.0242 8.97329 90.0647 9.4958C90.1049 10.0187 89.6424 11.3463 89.5315 11.3968C89.4793 11.4204 76.7371 12.036 63.2617 12.6582C63.4909 10.346 64.1123 4.3476 64.3783 1.65393C69.1972 1.64855 75.2523 1.89347 77.253 2.20541C79.4452 2.54754 83.3068 4.27685 85.0365 5.24245C86.7662 6.20764 89.6523 8.69155 89.6523 8.69155Z" fill="white"/>
<path fill-rule="evenodd" clip-rule="evenodd" d="M109.664 16.1428C109.736 16.2214 111.711 15.9252 112.888 15.7464C112.838 15.0692 112.753 14.3849 112.581 13.7594C112.254 12.5695 112.241 11.7537 112.198 11.2014C112.087 11.2225 111.988 11.2428 111.937 11.2556C111.776 11.2957 111.695 11.4265 110.991 12.0297C110.288 12.6333 108.427 13.5484 108.306 13.7292C108.186 13.9104 109.564 16.0319 109.664 16.1428Z" fill="white"/>
<path fill-rule="evenodd" clip-rule="evenodd" d="M2.20355 19.1766C1.70461 19.966 1.2305 20.9953 1.1006 21.5083C0.986414 21.9601 0.940492 22.2497 0.921875 22.409C1.46094 22.3457 2.15721 22.2584 2.7393 22.2174C3.88569 22.1372 4.85088 22.6398 5.07221 22.6601C5.29355 22.6799 9.53738 18.6777 9.35618 18.3964C9.17497 18.1147 7.72699 18.2355 5.47434 18.4365C4.13723 18.5557 2.94864 18.9094 2.20355 19.1766Z" fill="white"/>
<path fill-rule="evenodd" clip-rule="evenodd" d="M2.7488 28.281C2.417 28.07 1.15974 28.0096 1.15974 28.0096C1.15974 28.0096 1.07948 28.1602 1.12995 28.3211C1.18001 28.4821 2.14561 31.2374 2.62799 31.5092C3.11079 31.7806 5.63484 31.9312 5.74571 31.891C5.85617 31.8509 3.08059 28.492 2.7488 28.281Z" fill="white"/>
<path fill-rule="evenodd" clip-rule="evenodd" d="M31.8793 12.3718C32.8044 11.4066 34.4973 10.6619 35.2395 10.451C35.9821 10.24 36.6659 14.5438 36.3441 14.8657C36.0226 15.1875 31.4772 16.4344 30.8736 15.6302C30.2704 14.8255 31.8793 12.3718 31.8793 12.3718Z" fill="#153B4F"/>
<path fill-rule="evenodd" clip-rule="evenodd" d="M19.8554 38.4717C24.3971 38.4717 28.1015 34.7677 28.1015 30.226C28.1015 25.6843 24.3971 21.98 19.8554 21.98C15.3137 21.98 11.6094 25.6843 11.6094 30.226C11.6094 34.7677 15.3137 38.4717 19.8554 38.4717Z" fill="#153B4F"/>
<path fill-rule="evenodd" clip-rule="evenodd" d="M19.8543 36.5967C23.3625 36.5967 26.2242 33.735 26.2242 30.2268C26.2242 26.7181 23.3625 23.8569 19.8543 23.8569C16.346 23.8569 13.4844 26.7181 13.4844 30.2268C13.4844 33.735 16.346 36.5967 19.8543 36.5967Z" fill="white"/>
<path fill-rule="evenodd" clip-rule="evenodd" d="M19.8545 35.8174C22.9342 35.8174 25.4458 33.3057 25.4458 30.2265C25.4458 27.1468 22.9342 24.6352 19.8545 24.6352C16.7753 24.6352 14.2637 27.1468 14.2637 30.2265C14.2637 33.3057 16.7753 35.8174 19.8545 35.8174Z" fill="#153B4F"/>
<path fill-rule="evenodd" clip-rule="evenodd" d="M24.6326 27.3196C24.2781 28.3878 23.3894 29.0063 22.3655 29.2906C23.2405 28.1938 23.6567 27.0789 23.4875 25.611C22.9248 25.2387 21.953 24.6636 21.1786 24.7927C21.6829 25.7984 21.4917 26.8646 20.9684 27.7896C20.812 26.3954 20.318 25.3127 19.1605 24.3943C18.4994 24.5292 17.4055 24.8097 16.9488 25.4484C18.017 25.803 18.6355 26.6916 18.9197 27.716C17.8229 26.8406 16.7084 26.4248 15.2406 26.5936C14.8682 27.1566 14.2932 28.1285 14.4223 28.9029C15.428 28.3982 16.4937 28.5893 17.4188 29.1127C16.0246 29.2691 14.9423 29.7634 14.0234 30.9206C14.1583 31.5821 14.4392 32.676 15.078 33.1323C15.4321 32.0641 16.3212 31.446 17.3451 31.1614C16.4701 32.2581 16.0539 33.3731 16.2231 34.8409C16.7858 35.2128 17.7576 35.7883 18.532 35.6592C18.0277 34.6535 18.2189 33.5878 18.7418 32.6623C18.8986 34.0565 19.3926 35.1392 20.5501 36.0576C21.2112 35.9227 22.3051 35.6423 22.7614 35.0035C21.6936 34.6489 21.0751 33.7603 20.7909 32.7359C21.8872 33.6109 23.0022 34.0271 24.47 33.8583C24.8424 33.2953 25.4174 32.3235 25.2883 31.549C24.2826 32.0537 23.2169 31.8626 22.2914 31.3393C23.686 31.1829 24.7683 30.6885 25.6867 29.5313C25.5519 28.8698 25.2714 27.776 24.6326 27.3196Z" fill="white"/>
<path fill-rule="evenodd" clip-rule="evenodd" d="M19.8572 31.4331C20.522 31.4331 21.064 30.8911 21.064 30.2263C21.064 29.5615 20.522 29.0195 19.8572 29.0195C19.1924 29.0195 18.6504 29.5615 18.6504 30.2263C18.6504 30.8911 19.1924 31.4331 19.8572 31.4331Z" fill="#153B4F"/>
<path fill-rule="evenodd" clip-rule="evenodd" d="M91.2929 38.4717C95.8346 38.4717 99.539 34.7677 99.539 30.226C99.539 25.6843 95.8346 21.98 91.2929 21.98C86.7512 21.98 83.0469 25.6843 83.0469 30.226C83.0469 34.7677 86.7512 38.4717 91.2929 38.4717Z" fill="#153B4F"/>
<path fill-rule="evenodd" clip-rule="evenodd" d="M91.2918 36.5962C94.8 36.5962 97.6617 33.7346 97.6617 30.2263C97.6617 26.7176 94.8 23.8564 91.2918 23.8564C87.7835 23.8564 84.9219 26.7176 84.9219 30.2263C84.9219 33.7346 87.7835 36.5962 91.2918 36.5962Z" fill="white"/>
<path fill-rule="evenodd" clip-rule="evenodd" d="M91.2944 35.8179C94.3741 35.8179 96.8857 33.3062 96.8857 30.227C96.8857 27.1473 94.3741 24.6357 91.2944 24.6357C88.2148 24.6357 85.7031 27.1473 85.7031 30.227C85.7031 33.3062 88.2148 35.8179 91.2944 35.8179Z" fill="#153B4F"/>
<path fill-rule="evenodd" clip-rule="evenodd" d="M96.0701 27.3196C95.7156 28.3878 94.8269 29.0063 93.8026 29.2906C94.678 28.1938 95.0942 27.0789 94.925 25.611C94.3623 25.2387 93.3905 24.6636 92.6156 24.7927C93.1204 25.7984 92.9292 26.8646 92.4059 27.7896C92.2495 26.3954 91.7555 25.3127 90.598 24.3943C89.9365 24.5292 88.8426 24.8097 88.3863 25.4484C89.4545 25.803 90.073 26.6916 90.3572 27.716C89.2604 26.8406 88.1459 26.4248 86.6781 26.5936C86.3057 27.1566 85.7307 28.1285 85.8593 28.9029C86.8655 28.3982 87.9312 28.5893 88.8563 29.1127C87.4621 29.2691 86.3794 29.7634 85.4609 30.9206C85.5958 31.5821 85.8763 32.676 86.5151 33.1323C86.8696 32.0641 87.7583 31.446 88.7826 31.1614C87.9076 32.2581 87.4914 33.3731 87.6602 34.8409C88.2233 35.2128 89.1951 35.7883 89.9695 35.6592C89.4648 34.6535 89.656 33.5878 90.1793 32.6623C90.3361 34.0565 90.8301 35.1392 91.9872 36.0576C92.6487 35.9227 93.7426 35.6423 94.1989 35.0035C93.1307 34.6489 92.5126 33.7603 92.2284 32.7359C93.3247 33.6109 94.4397 34.0271 95.9075 33.8583C96.2799 33.2953 96.8549 32.3235 96.7258 31.549C95.7201 32.0537 94.6544 31.8626 93.7289 31.3393C95.1231 31.1829 96.2058 30.6885 97.1242 29.5313C96.9894 28.8698 96.7089 27.776 96.0701 27.3196Z" fill="white"/>
<path fill-rule="evenodd" clip-rule="evenodd" d="M91.2927 31.4331C91.9576 31.4331 92.4995 30.8911 92.4995 30.2263C92.4995 29.5615 91.9576 29.0195 91.2927 29.0195C90.6283 29.0195 90.0859 29.5615 90.0859 30.2263C90.0859 30.8911 90.6283 31.4331 91.2927 31.4331Z" fill="#153B4F"/>
<path fill-rule="evenodd" clip-rule="evenodd" d="M84.91 1.2845C84.8852 1.27954 84.4277 1.4504 85.1169 1.74331C86.7076 2.41931 104.584 10.0494 104.879 8.62496C98.4185 5.74306 91.862 2.72959 84.91 1.2845Z" fill="white"/>
</svg>
