<svg width="32" height="32" viewBox="0 0 32 32" fill="none" xmlns="http://www.w3.org/2000/svg">
<path d="M11.3641 18.1627L18.6355 22.8371M18.6355 9.16286L11.3642 13.8373M26 25C26 27.2091 24.2091 29 22 29C19.7909 29 18 27.2091 18 25C18 22.7909 19.7909 21 22 21C24.2091 21 26 22.7909 26 25ZM12 16C12 18.2091 10.2091 20 8 20C5.79086 20 4 18.2091 4 16C4 13.7909 5.79086 12 8 12C10.2091 12 12 13.7909 12 16ZM26 7C26 9.20914 24.2091 11 22 11C19.7909 11 18 9.20914 18 7C18 4.79086 19.7909 3 22 3C24.2091 3 26 4.79086 26 7Z" stroke="#153B4F" stroke-width="2" stroke-linecap="round" stroke-linejoin="round"/>
</svg>
