<svg width="100" height="40" viewBox="0 0 100 40" fill="none" xmlns="http://www.w3.org/2000/svg">
<rect width="100" height="40" rx="20" fill="#153B4F"/>
<path fill-rule="evenodd" clip-rule="evenodd" d="M39.5838 26.4304H36.1509L33.5767 16.3206C33.4545 15.8556 33.1951 15.4444 32.8134 15.2507C31.8611 14.7637 30.8116 14.3762 29.6667 14.1807V13.7915H35.1969C35.9601 13.7915 36.5326 14.3762 36.628 15.0552L37.9636 22.3477L41.3949 13.7915H44.7323L39.5838 26.4304ZM46.6405 26.4304H43.3984L46.068 13.7915H49.3101L46.6405 26.4304ZM53.5046 17.2929C53.6 16.6121 54.1724 16.2229 54.8403 16.2229C55.8897 16.1252 57.0329 16.3206 57.9869 16.8059L58.5594 14.0847C57.6053 13.6955 56.5559 13.5 55.6035 13.5C52.4568 13.5 50.1671 15.2507 50.1671 17.6804C50.1671 19.5288 51.789 20.4993 52.9338 21.084C54.1724 21.667 54.6494 22.0563 54.554 22.6392C54.554 23.5137 53.6 23.903 52.6476 23.903C51.5028 23.903 50.3579 23.6115 49.3101 23.1245L48.7377 25.8474C49.8825 26.3327 51.1211 26.5281 52.266 26.5281C55.7943 26.6242 57.9869 24.8752 57.9869 22.25C57.9869 18.9441 53.5046 18.7504 53.5046 17.2929ZM69.3334 26.4304L66.7592 13.7915H63.9941C63.4217 13.7915 62.8492 14.1807 62.6584 14.7637L57.8915 26.4304H61.229L61.8952 24.5837H65.9959L66.3775 26.4304H69.3334ZM64.4711 17.1951L65.4235 21.9585H62.7538L64.4711 17.1951Z" fill="white"/>
</svg>
