<svg width="106" height="39" viewBox="0 0 106 39" fill="none" xmlns="http://www.w3.org/2000/svg">
<path fill-rule="evenodd" clip-rule="evenodd" d="M50.8646 0.913059C50.8646 0.913059 43.3404 1.55712 42.4925 1.68269C41.6442 1.80826 41.5969 1.82413 41.5969 1.82413C41.5969 1.82413 38.7378 2.51511 36.0363 4.11751C33.3345 5.71991 23.5956 11.7828 23.5956 11.7828C23.5956 11.7828 22.6372 11.7359 22.5117 11.7828C22.3861 11.8301 21.8362 12.1598 21.7421 12.1598C21.6479 12.1598 12.4744 13.7778 10.0082 14.4691C7.54195 15.1601 4.80874 16.2598 3.99184 16.8097C3.17494 17.3593 1.87094 19.5899 1.33692 20.878C0.802909 22.1658 0.74013 22.5742 0.74013 22.5742C0.74013 22.5742 0.237505 23.4225 0.0801924 23.9879C-0.0767674 24.5533 0.0329286 26.5405 0.103825 26.7525C0.174369 26.9645 0.692862 27.4202 0.849821 28.2371C1.00678 29.0537 0.928479 29.6194 0.739774 29.7764C0.551423 29.9333 0.347199 30.1848 0.504159 30.5619C0.661471 30.9389 1.79228 31.7241 2.01203 31.85C2.23212 31.9756 3.69309 32.0542 3.69309 32.0542C3.69309 32.0542 3.59856 32.5724 3.81866 32.6983C4.03875 32.8239 6.44182 33.1381 7.30563 33.2006C8.16979 33.2637 8.53097 33.1223 8.53097 33.1223C8.53097 33.1223 8.53098 32.1957 8.60963 32.2112C8.68794 32.2271 8.87664 32.274 8.97082 32.1953C9.06499 32.117 9.88189 31.7872 9.88189 31.7872C9.88189 31.7872 26.5165 32.0698 26.5792 32.3054C26.642 32.541 26.7993 32.8708 26.9408 32.8394C27.0819 32.808 75.5412 32.3054 75.5412 32.3054C75.5412 32.3054 75.8082 31.9128 76.0752 31.85C76.3422 31.7872 76.782 31.7558 76.782 31.7558L93.5266 31.1904C93.5266 31.1904 93.5421 31.6772 93.6681 31.6772C93.7936 31.6772 103.469 30.6719 104.632 30.0437C105.794 29.4152 105.92 27.7973 105.983 27.0118C106.046 26.2266 105.92 25.8023 105.857 25.724C105.794 25.6453 105.857 23.0536 105.669 22.8962C105.48 22.7393 104.82 22.1266 104.538 21.4356C104.255 20.7443 104.224 19.7549 104.224 19.7549C104.224 19.7549 103.367 14.4691 102.967 13.6522C102.566 12.8353 100.54 7.8796 99.1733 6.05746C97.8065 4.23532 96.7385 3.00997 96.7385 3.00997C96.7385 3.00997 96.9896 2.93943 97.233 2.71157C97.4767 2.48372 97.5 1.85552 97.4295 1.80826C97.3589 1.76135 92.623 0.959972 91.162 0.771618C89.701 0.583267 89.4968 0.646049 89.4968 0.567394C89.4968 0.488739 89.2926 0.268997 89.2926 0.268997C89.2926 0.268997 87.4235 0.316261 87.2504 0.237602C87.0779 0.158947 86.7477 0.0647736 86.1823 0.0492516C85.6169 0.0333786 83.3708 0.0333786 80.8887 0.00198746C78.407 -0.0294037 54.3421 0.331779 54.3421 0.331779C54.3421 0.331779 54.2479 0.206211 53.9022 0.206211C53.5569 0.206211 52.4885 0.268993 51.7976 0.488739C51.1062 0.708836 50.8646 0.913059 50.8646 0.913059Z" fill="#153B4F"/>
<path fill-rule="evenodd" clip-rule="evenodd" d="M49.5927 13.9497L49.9824 2.64079L47.0076 2.76636C47.0076 2.76636 42.7506 2.95506 39.6876 4.3215C36.6246 5.68828 25.4406 13.338 24.702 13.8407C23.9638 14.3433 23.6181 14.8106 23.6418 14.9482C23.6654 15.0854 23.8576 15.0329 23.8185 15.0932C23.7793 15.1538 35.5231 14.5905 49.5927 13.9497Z" fill="white"/>
<path fill-rule="evenodd" clip-rule="evenodd" d="M53.3017 2.50063L53.2734 13.7852C60.1761 13.4762 67.433 13.1496 74.0119 12.8497L73.0902 2.12569C67.6848 2.12181 62.1471 2.12675 62.1471 2.12675L53.3017 2.50063Z" fill="white"/>
<path fill-rule="evenodd" clip-rule="evenodd" d="M76.0391 2.12887C76.4031 4.19227 77.5321 10.6093 77.851 12.6748C88.7962 12.1729 97.0473 11.7796 97.108 11.7323C97.2886 11.5909 97.3436 11.5045 97.1944 10.9941C97.0452 10.4834 95.0111 6.35232 93.9117 5.23703C92.8119 4.12173 92.0423 3.36797 90.236 2.83395C88.4294 2.29959 85.7431 2.20541 82.8998 2.15815C81.9298 2.14227 79.2065 2.13346 76.0391 2.12887Z" fill="white"/>
<path fill-rule="evenodd" clip-rule="evenodd" d="M7.92284 17.9588C7.92284 17.9588 6.44636 21.4775 6.24214 21.5403C5.69754 21.7078 4.15793 22.2186 3.14774 22.0482C3.05356 22.0323 2.19011 21.4902 2.20528 20.9904C2.22573 20.298 3.16326 18.3672 3.57171 18.006C3.98015 17.6445 5.33107 17.629 6.37547 17.6054C7.42022 17.5817 7.92284 17.9588 7.92284 17.9588Z" fill="white"/>
<path fill-rule="evenodd" clip-rule="evenodd" d="M102.669 12.9916C101.549 13.004 99.6728 13.0512 99.5324 13.0904C99.336 13.1454 99.234 13.1691 99.1713 13.4047C99.1085 13.6403 99.9645 17.4493 100.004 18.7533C100.043 20.0569 99.9095 20.9839 100.098 21.1172C100.286 21.2509 102.383 21.1959 102.847 20.968C103.183 20.8026 103.877 20.1892 104.231 19.8661C104.226 19.7959 104.225 19.7554 104.225 19.7554C104.225 19.7554 103.369 14.4695 102.968 13.6526C102.905 13.5246 102.803 13.295 102.669 12.9916Z" fill="white"/>
<path fill-rule="evenodd" clip-rule="evenodd" d="M17.83 38.5381C22.3028 38.5381 25.951 34.8899 25.951 30.4171C25.951 25.9443 22.3028 22.2961 17.83 22.2961C13.3572 22.2961 9.70898 25.9443 9.70898 30.4171C9.70898 34.8899 13.3572 38.5381 17.83 38.5381Z" fill="#153B4F"/>
<path fill-rule="evenodd" clip-rule="evenodd" d="M17.8283 36.4019C21.1245 36.4019 23.8129 33.7134 23.8129 30.4173C23.8129 27.1211 21.1245 24.4327 17.8283 24.4327C14.5322 24.4327 11.8438 27.1211 11.8438 30.4173C11.8438 33.7134 14.5322 36.4019 17.8283 36.4019Z" fill="white"/>
<path fill-rule="evenodd" clip-rule="evenodd" d="M17.8288 35.8887C20.8424 35.8887 23.3002 33.4306 23.3002 30.4173C23.3002 27.4037 20.8424 24.9456 17.8288 24.9456C14.8152 24.9456 12.3574 27.4037 12.3574 30.4173C12.3574 33.4306 14.8152 35.8887 17.8288 35.8887Z" fill="#153B4F"/>
<path fill-rule="evenodd" clip-rule="evenodd" d="M16.6465 24.7458L17.3533 30.4175H17.8291L17.2669 24.6544L16.6465 24.7458Z" fill="white"/>
<path fill-rule="evenodd" clip-rule="evenodd" d="M19.0088 24.7458L18.302 30.4175H17.8262L18.3884 24.6544L19.0088 24.7458Z" fill="white"/>
<path fill-rule="evenodd" clip-rule="evenodd" d="M12.9805 27.2433L17.4907 30.7539L17.8272 30.4174L13.3547 26.74L12.9805 27.2433Z" fill="white"/>
<path fill-rule="evenodd" clip-rule="evenodd" d="M14.6537 25.5708L18.1643 30.081L17.8278 30.4175L14.1504 25.945L14.6537 25.5708Z" fill="white"/>
<path fill-rule="evenodd" clip-rule="evenodd" d="M12.1578 31.6001L17.8291 30.8932V30.4174L12.0664 30.9797L12.1578 31.6001Z" fill="white"/>
<path fill-rule="evenodd" clip-rule="evenodd" d="M12.1578 29.2348L17.8291 29.9417V30.4175L12.0664 29.8552L12.1578 29.2348Z" fill="white"/>
<path fill-rule="evenodd" clip-rule="evenodd" d="M14.6537 35.2642L18.1643 30.7539L17.8278 30.4175L14.1504 34.8903L14.6537 35.2642Z" fill="white"/>
<path fill-rule="evenodd" clip-rule="evenodd" d="M12.9805 33.5914L17.4907 30.0808L17.8272 30.4173L13.3547 34.0947L12.9805 33.5914Z" fill="white"/>
<path fill-rule="evenodd" clip-rule="evenodd" d="M19.0088 36.0878L18.302 30.4165H17.8262L18.3884 36.1792L19.0088 36.0878Z" fill="white"/>
<path fill-rule="evenodd" clip-rule="evenodd" d="M16.6465 36.0878L17.3533 30.4165H17.8291L17.2669 36.1792L16.6465 36.0878Z" fill="white"/>
<path fill-rule="evenodd" clip-rule="evenodd" d="M22.6729 33.5909L18.1627 30.0803L17.8262 30.4168L22.2986 34.0942L22.6729 33.5909Z" fill="white"/>
<path fill-rule="evenodd" clip-rule="evenodd" d="M21.0028 35.2632L17.4922 30.753L17.8287 30.4165L21.5061 34.8889L21.0028 35.2632Z" fill="white"/>
<path fill-rule="evenodd" clip-rule="evenodd" d="M23.4975 29.2348L17.8262 29.9417V30.4175L23.5889 29.8552L23.4975 29.2348Z" fill="white"/>
<path fill-rule="evenodd" clip-rule="evenodd" d="M23.4975 31.5996L17.8262 30.8928V30.4169L23.5889 30.9792L23.4975 31.5996Z" fill="white"/>
<path fill-rule="evenodd" clip-rule="evenodd" d="M21.0028 25.5708L17.4922 30.081L17.8287 30.4175L21.5061 25.9447L21.0028 25.5708Z" fill="white"/>
<path fill-rule="evenodd" clip-rule="evenodd" d="M22.6729 27.2433L18.1627 30.7539L17.8262 30.4174L22.2986 26.74L22.6729 27.2433Z" fill="white"/>
<path fill-rule="evenodd" clip-rule="evenodd" d="M17.8284 32.2861C18.858 32.2861 19.6974 31.4467 19.6974 30.4171C19.6974 29.3875 18.858 28.5477 17.8284 28.5477C16.7988 28.5477 15.959 29.3875 15.959 30.4171C15.959 31.4467 16.7988 32.2861 17.8284 32.2861Z" fill="white"/>
<path fill-rule="evenodd" clip-rule="evenodd" d="M17.8282 31.1396C18.2261 31.1396 18.5509 30.8151 18.5509 30.4169C18.5509 30.0191 18.2261 29.6946 17.8282 29.6946C17.43 29.6946 17.1055 30.0191 17.1055 30.4169C17.1055 30.8151 17.43 31.1396 17.8282 31.1396Z" fill="#153B4F"/>
<path fill-rule="evenodd" clip-rule="evenodd" d="M84.7733 38.5381C89.2462 38.5381 92.8943 34.8899 92.8943 30.4171C92.8943 25.9443 89.2462 22.2961 84.7733 22.2961C80.3005 22.2961 76.6523 25.9443 76.6523 30.4171C76.6523 34.8899 80.3005 38.5381 84.7733 38.5381Z" fill="#153B4F"/>
<path fill-rule="evenodd" clip-rule="evenodd" d="M84.7736 36.4023C88.0698 36.4023 90.7582 33.7139 90.7582 30.4178C90.7582 27.1216 88.0698 24.4332 84.7736 24.4332C81.4775 24.4332 78.7891 27.1216 78.7891 30.4178C78.7891 33.7139 81.4775 36.4023 84.7736 36.4023Z" fill="white"/>
<path fill-rule="evenodd" clip-rule="evenodd" d="M84.7761 35.8887C87.7897 35.8887 90.2474 33.4306 90.2474 30.4173C90.2474 27.4037 87.7897 24.9456 84.7761 24.9456C81.7624 24.9456 79.3047 27.4037 79.3047 30.4173C79.3047 33.4306 81.7624 35.8887 84.7761 35.8887Z" fill="#153B4F"/>
<path fill-rule="evenodd" clip-rule="evenodd" d="M83.5898 24.7463L84.2967 30.418H84.7725L84.2103 24.6549L83.5898 24.7463Z" fill="white"/>
<path fill-rule="evenodd" clip-rule="evenodd" d="M85.96 24.7463L85.2532 30.418H84.7773L85.3396 24.6549L85.96 24.7463Z" fill="white"/>
<path fill-rule="evenodd" clip-rule="evenodd" d="M79.9316 27.2433L84.4419 30.7539L84.7783 30.4174L80.3055 26.74L79.9316 27.2433Z" fill="white"/>
<path fill-rule="evenodd" clip-rule="evenodd" d="M81.6006 25.5708L85.1112 30.081L84.7747 30.4175L81.0977 25.945L81.6006 25.5708Z" fill="white"/>
<path fill-rule="evenodd" clip-rule="evenodd" d="M79.105 31.6001L84.7764 30.8932V30.4174L79.0137 30.9797L79.105 31.6001Z" fill="white"/>
<path fill-rule="evenodd" clip-rule="evenodd" d="M79.105 29.2348L84.7764 29.9417V30.4175L79.0137 29.8552L79.105 29.2348Z" fill="white"/>
<path fill-rule="evenodd" clip-rule="evenodd" d="M81.601 35.2642L85.1116 30.7539L84.7751 30.4175L81.0977 34.8903L81.601 35.2642Z" fill="white"/>
<path fill-rule="evenodd" clip-rule="evenodd" d="M79.9316 33.5914L84.4419 30.0808L84.7783 30.4173L80.3059 34.0947L79.9316 33.5914Z" fill="white"/>
<path fill-rule="evenodd" clip-rule="evenodd" d="M85.96 36.0883L85.2532 30.417H84.7773L85.3396 36.1797L85.96 36.0883Z" fill="white"/>
<path fill-rule="evenodd" clip-rule="evenodd" d="M83.5898 36.0883L84.2967 30.417H84.7725L84.2103 36.1797L83.5898 36.0883Z" fill="white"/>
<path fill-rule="evenodd" clip-rule="evenodd" d="M89.624 33.5909L85.1138 30.0803L84.7773 30.4168L89.2502 34.0942L89.624 33.5909Z" fill="white"/>
<path fill-rule="evenodd" clip-rule="evenodd" d="M87.9501 35.2642L84.4395 30.7539L84.7759 30.4175L88.4534 34.8899L87.9501 35.2642Z" fill="white"/>
<path fill-rule="evenodd" clip-rule="evenodd" d="M90.4487 29.2348L84.7773 29.9417V30.4175L90.5401 29.8552L90.4487 29.2348Z" fill="white"/>
<path fill-rule="evenodd" clip-rule="evenodd" d="M90.4487 31.5996L84.7773 30.8928V30.4169L90.5401 30.9792L90.4487 31.5996Z" fill="white"/>
<path fill-rule="evenodd" clip-rule="evenodd" d="M87.9501 25.5708L84.4395 30.081L84.7759 30.4175L88.4534 25.9447L87.9501 25.5708Z" fill="white"/>
<path fill-rule="evenodd" clip-rule="evenodd" d="M89.624 27.2433L85.1138 30.7539L84.7773 30.4174L89.2502 26.74L89.624 27.2433Z" fill="white"/>
<path fill-rule="evenodd" clip-rule="evenodd" d="M84.7757 32.2861C85.8052 32.2861 86.6447 31.4467 86.6447 30.4171C86.6447 29.3875 85.8052 28.5477 84.7757 28.5477C83.7461 28.5477 82.9062 29.3875 82.9062 30.4171C82.9062 31.4467 83.7461 32.2861 84.7757 32.2861Z" fill="white"/>
<path fill-rule="evenodd" clip-rule="evenodd" d="M84.7735 31.1396C85.1714 31.1396 85.4962 30.8151 85.4962 30.4169C85.4962 30.0191 85.1714 29.6946 84.7735 29.6946C84.3753 29.6946 84.0508 30.0191 84.0508 30.4169C84.0508 30.8151 84.3753 31.1396 84.7735 31.1396Z" fill="#153B4F"/>
<path fill-rule="evenodd" clip-rule="evenodd" d="M27.989 11.9616C28.0832 12.2127 28.1305 15.8884 27.9262 15.9515C25.4995 16.6982 23.1836 16.5892 23.1836 14.6616C23.1836 13.6663 27.461 10.5532 27.989 11.9616Z" fill="#153B4F"/>
</svg>
