<svg width="25" height="24" viewBox="0 0 25 24" fill="none" xmlns="http://www.w3.org/2000/svg">
<g clip-path="url(#clip0_165_1453)">
<path d="M3.5 6C3.5 6.53043 3.71071 7.03914 4.08579 7.41421C4.46086 7.78929 4.96957 8 5.5 8C6.03043 8 6.53914 7.78929 6.91421 7.41421C7.28929 7.03914 7.5 6.53043 7.5 6C7.5 5.46957 7.28929 4.96086 6.91421 4.58579C6.53914 4.21071 6.03043 4 5.5 4C4.96957 4 4.46086 4.21071 4.08579 4.58579C3.71071 4.96086 3.5 5.46957 3.5 6Z" stroke="#153B4F" stroke-width="2" stroke-linecap="round" stroke-linejoin="round"/>
<path d="M10.5 6C10.5 6.53043 10.7107 7.03914 11.0858 7.41421C11.4609 7.78929 11.9696 8 12.5 8C13.0304 8 13.5391 7.78929 13.9142 7.41421C14.2893 7.03914 14.5 6.53043 14.5 6C14.5 5.46957 14.2893 4.96086 13.9142 4.58579C13.5391 4.21071 13.0304 4 12.5 4C11.9696 4 11.4609 4.21071 11.0858 4.58579C10.7107 4.96086 10.5 5.46957 10.5 6Z" stroke="#153B4F" stroke-width="2" stroke-linecap="round" stroke-linejoin="round"/>
<path d="M17.5 6C17.5 6.53043 17.7107 7.03914 18.0858 7.41421C18.4609 7.78929 18.9696 8 19.5 8C20.0304 8 20.5391 7.78929 20.9142 7.41421C21.2893 7.03914 21.5 6.53043 21.5 6C21.5 5.46957 21.2893 4.96086 20.9142 4.58579C20.5391 4.21071 20.0304 4 19.5 4C18.9696 4 18.4609 4.21071 18.0858 4.58579C17.7107 4.96086 17.5 5.46957 17.5 6Z" stroke="#153B4F" stroke-width="2" stroke-linecap="round" stroke-linejoin="round"/>
<path d="M3.5 18C3.5 18.5304 3.71071 19.0391 4.08579 19.4142C4.46086 19.7893 4.96957 20 5.5 20C6.03043 20 6.53914 19.7893 6.91421 19.4142C7.28929 19.0391 7.5 18.5304 7.5 18C7.5 17.4696 7.28929 16.9609 6.91421 16.5858C6.53914 16.2107 6.03043 16 5.5 16C4.96957 16 4.46086 16.2107 4.08579 16.5858C3.71071 16.9609 3.5 17.4696 3.5 18Z" stroke="#153B4F" stroke-width="2" stroke-linecap="round" stroke-linejoin="round"/>
<path d="M10.5 18C10.5 18.5304 10.7107 19.0391 11.0858 19.4142C11.4609 19.7893 11.9696 20 12.5 20C13.0304 20 13.5391 19.7893 13.9142 19.4142C14.2893 19.0391 14.5 18.5304 14.5 18C14.5 17.4696 14.2893 16.9609 13.9142 16.5858C13.5391 16.2107 13.0304 16 12.5 16C11.9696 16 11.4609 16.2107 11.0858 16.5858C10.7107 16.9609 10.5 17.4696 10.5 18Z" stroke="#153B4F" stroke-width="2" stroke-linecap="round" stroke-linejoin="round"/>
<path d="M5.5 8V16" stroke="#153B4F" stroke-width="2" stroke-linecap="round" stroke-linejoin="round"/>
<path d="M12.5 8V16" stroke="#153B4F" stroke-width="2" stroke-linecap="round" stroke-linejoin="round"/>
<path d="M19.5 8V10C19.5 10.5304 19.2893 11.0391 18.9142 11.4142C18.5391 11.7893 18.0304 12 17.5 12H5.5" stroke="#153B4F" stroke-width="2" stroke-linecap="round" stroke-linejoin="round"/>
</g>
<defs>
<clipPath id="clip0_165_1453">
<rect width="24" height="24" fill="white" transform="translate(0.5)"/>
</clipPath>
</defs>
</svg>
