<svg width="60" height="60" viewBox="0 0 60 60" fill="none" xmlns="http://www.w3.org/2000/svg">
<rect width="60" height="60" rx="30" fill="#153B4F"/>
<path d="M40.667 19.4027C37.5455 16.6479 33.4732 15.2184 29.3147 15.4175C25.1563 15.6167 21.2392 17.4288 18.3952 20.4693C15.5512 23.5097 14.0043 27.5389 14.0829 31.7014C14.1616 35.8639 15.8596 39.8318 18.8164 42.7627C20.0649 43.987 21.745 44.6709 23.4937 44.6667H36.5164C38.1721 44.6892 39.7732 44.0743 40.9884 42.9493C42.5869 41.4232 43.8536 39.5838 44.7091 37.546C45.5645 35.5082 45.9905 33.3158 45.9604 31.106C45.9302 28.8961 45.4446 26.7162 44.5338 24.7025C43.623 22.6888 42.3067 20.8846 40.667 19.4027ZM39.1577 41.012C38.4357 41.6665 37.4907 42.02 36.5164 42H23.4937C22.442 42.0033 21.4313 41.5924 20.6804 40.856C18.7784 38.9969 17.4758 36.6115 16.9401 34.0064C16.4044 31.4013 16.6601 28.6955 17.6742 26.2368C18.6884 23.7781 20.4146 21.6788 22.6312 20.2089C24.8477 18.739 27.4532 17.9656 30.1128 17.988C32.7723 18.0105 35.3644 18.8278 37.5558 20.3349C39.7472 21.8421 41.4378 23.9701 42.4102 26.4456C43.3827 28.9211 43.5927 31.6308 43.0131 34.2265C42.4335 36.8223 41.0908 39.1853 39.1577 41.012ZM40.667 31.3333C40.6711 32.754 40.3889 34.1609 39.8373 35.4701C39.2856 36.7793 38.4759 37.964 37.4564 38.9533C37.2035 39.2009 36.8627 39.3378 36.5089 39.3341C36.1551 39.3303 35.8172 39.1862 35.5697 38.9333C35.3222 38.6805 35.1852 38.3397 35.189 37.9859C35.1927 37.632 35.3369 37.2942 35.5897 37.0467C41.111 31.772 36.3897 22.2533 28.8564 23.416C28.6829 23.441 28.5063 23.4317 28.3365 23.3884C28.1666 23.3452 28.007 23.2689 27.8667 23.164C27.5832 22.9521 27.3956 22.6363 27.345 22.286C27.32 22.1126 27.3294 21.9359 27.3726 21.7661C27.4158 21.5963 27.4921 21.4366 27.597 21.2963C27.702 21.156 27.8335 21.0377 27.9841 20.9482C28.1348 20.8587 28.3016 20.7997 28.475 20.7747C29.9882 20.5618 31.5294 20.6755 32.9949 21.108C34.4605 21.5405 35.8164 22.2819 36.9715 23.2822C38.1265 24.2826 39.054 25.5187 39.6915 26.9074C40.3289 28.2962 40.6616 29.8053 40.667 31.3333ZM24.4084 37.0453C24.6616 37.2929 24.806 37.6308 24.81 37.9849C24.814 38.339 24.6772 38.6801 24.4297 38.9333C24.1822 39.1865 23.8442 39.331 23.4901 39.335C23.136 39.339 22.7949 39.2022 22.5417 38.9547C21.3392 37.7835 20.4312 36.3442 19.8919 34.7547C19.3527 33.1651 19.1975 31.4704 19.439 29.8093C19.4641 29.6359 19.523 29.4691 19.6125 29.3184C19.702 29.1678 19.8203 29.0363 19.9607 28.9313C20.101 28.8264 20.2606 28.7501 20.4305 28.7069C20.6003 28.6637 20.7769 28.6543 20.9504 28.6793C21.1238 28.7044 21.2906 28.7633 21.4412 28.8528C21.5919 28.9423 21.7234 29.0606 21.8284 29.201C21.9333 29.3413 22.0096 29.5009 22.0528 29.6708C22.096 29.8406 22.1054 30.0172 22.0804 30.1907C21.8985 31.4359 22.0147 32.7066 22.4194 33.8982C22.8241 35.0898 23.5058 36.1684 24.4084 37.0453ZM32.667 31.3333C32.6669 31.7128 32.5857 32.0879 32.4289 32.4335C32.2722 32.7792 32.0435 33.0873 31.7581 33.3375C31.4727 33.5876 31.1372 33.774 30.774 33.8841C30.4108 33.9942 30.0283 34.0255 29.6521 33.9759C29.2758 33.9264 28.9145 33.7971 28.5922 33.5967C28.2699 33.3963 27.9941 33.1294 27.7833 32.8139C27.5724 32.4983 27.4313 32.1414 27.3694 31.767C27.3075 31.3926 27.3262 31.0093 27.4244 30.6427L22.391 25.6093C22.1482 25.3579 22.0138 25.0211 22.0168 24.6715C22.0198 24.3219 22.1601 23.9875 22.4073 23.7402C22.6545 23.493 22.9889 23.3528 23.3385 23.3498C23.6881 23.3467 24.0249 23.4811 24.2764 23.724L29.3097 28.7573C29.7047 28.6536 30.1182 28.6416 30.5186 28.7223C30.9189 28.8029 31.2955 28.9741 31.6195 29.2227C31.9435 29.4713 32.2064 29.7908 32.3879 30.1566C32.5695 30.5224 32.665 30.9249 32.667 31.3333Z" fill="white"/>
</svg>
