<svg width="101" height="100" viewBox="0 0 101 100" fill="none" xmlns="http://www.w3.org/2000/svg">
<rect x="0.5" width="100" height="100" rx="50" fill="#009900" fill-opacity="0.2"/>
<g clip-path="url(#clip0_614_2261)">
<path d="M41.9001 29.2251C39.1703 30.3551 36.6898 32.0116 34.6001 34.1001" stroke="#009900" stroke-width="4" stroke-linecap="round" stroke-linejoin="round"/>
<path d="M29.725 41.3999C28.5914 44.1256 28.0053 47.0478 28 49.9999" stroke="#009900" stroke-width="4" stroke-linecap="round" stroke-linejoin="round"/>
<path d="M29.7251 58.6001C30.8551 61.3299 32.5116 63.8104 34.6001 65.9001" stroke="#009900" stroke-width="4" stroke-linecap="round" stroke-linejoin="round"/>
<path d="M41.8999 70.7749C44.6256 71.9085 47.5478 72.4946 50.4999 72.4999" stroke="#009900" stroke-width="4" stroke-linecap="round" stroke-linejoin="round"/>
<path d="M59.1001 70.7749C61.8299 69.6449 64.3104 67.9884 66.4001 65.8999" stroke="#009900" stroke-width="4" stroke-linecap="round" stroke-linejoin="round"/>
<path d="M71.2749 58.6C72.4085 55.8743 72.9946 52.9521 72.9999 50" stroke="#009900" stroke-width="4" stroke-linecap="round" stroke-linejoin="round"/>
<path d="M71.2749 41.4001C70.1449 38.6703 68.4884 36.1898 66.3999 34.1001" stroke="#009900" stroke-width="4" stroke-linecap="round" stroke-linejoin="round"/>
<path d="M59.1 29.225C56.3743 28.0914 53.4521 27.5053 50.5 27.5" stroke="#009900" stroke-width="4" stroke-linecap="round" stroke-linejoin="round"/>
<path d="M43 50L48 55L58 45" stroke="#009900" stroke-width="4" stroke-linecap="round" stroke-linejoin="round"/>
</g>
<defs>
<clipPath id="clip0_614_2261">
<rect width="60" height="60" fill="white" transform="translate(20.5 20)"/>
</clipPath>
</defs>
</svg>
