<svg width="58" height="40" viewBox="0 0 58 40" fill="none" xmlns="http://www.w3.org/2000/svg">
<path fill-rule="evenodd" clip-rule="evenodd" d="M18.5838 26.4304H15.1509L12.5767 16.3206C12.4545 15.8556 12.1951 15.4444 11.8134 15.2507C10.8611 14.7637 9.81161 14.3762 8.66675 14.1807V13.7915H14.1969C14.9601 13.7915 15.5326 14.3762 15.628 15.0552L16.9636 22.3477L20.3949 13.7915H23.7323L18.5838 26.4304ZM25.6405 26.4304H22.3984L25.068 13.7915H28.3101L25.6405 26.4304ZM32.5046 17.2929C32.6 16.6121 33.1724 16.2229 33.8403 16.2229C34.8897 16.1252 36.0329 16.3206 36.9869 16.8059L37.5594 14.0847C36.6053 13.6955 35.5559 13.5 34.6035 13.5C31.4568 13.5 29.1671 15.2507 29.1671 17.6804C29.1671 19.5288 30.789 20.4993 31.9338 21.084C33.1724 21.667 33.6494 22.0563 33.554 22.6392C33.554 23.5137 32.6 23.903 31.6476 23.903C30.5028 23.903 29.3579 23.6115 28.3101 23.1245L27.7377 25.8474C28.8825 26.3327 30.1211 26.5281 31.266 26.5281C34.7943 26.6242 36.9869 24.8752 36.9869 22.25C36.9869 18.9441 32.5046 18.7504 32.5046 17.2929ZM48.3334 26.4304L45.7592 13.7915H42.9941C42.4217 13.7915 41.8492 14.1807 41.6584 14.7637L36.8915 26.4304H40.229L40.8952 24.5837H44.9959L45.3775 26.4304H48.3334ZM43.4711 17.1951L44.4235 21.9585H41.7538L43.4711 17.1951Z" fill="white"/>
</svg>
