<svg width="28" height="28" viewBox="0 0 28 28" fill="none" xmlns="http://www.w3.org/2000/svg">
<g clip-path="url(#clip0_172_1111)">
<path d="M19.5486 11.9105L16.7778 7.5227C16.2236 6.8892 15.4244 6.52637 14.5833 6.52637H10.9456L5.49961 9.24937L4.09961 15.141L5.23478 15.4105L6.50878 10.0485L11.0529 7.77703L9.42544 14.5122C9.12211 15.7687 9.69494 17.094 10.8196 17.7334L16.3333 20.8659V27.5264H17.4999V20.1869L14.2403 18.3354L16.6086 9.4302L18.7343 12.8077L23.5468 15.2134L24.0683 14.1692L19.5474 11.9082L19.5486 11.9105ZM13.2416 17.7672L11.3971 16.7195C10.7216 16.3357 10.3774 15.5412 10.5606 14.7864L12.2744 7.69303H14.5856C15.0476 7.69303 15.4886 7.8762 15.7733 8.1422L13.2428 17.7684L13.2416 17.7672ZM14.5844 5.3597C16.1933 5.3597 17.5011 4.0507 17.5011 2.44303C17.5011 0.835367 16.1933 -0.473633 14.5844 -0.473633C12.9756 -0.473633 11.6678 0.835367 11.6678 2.44303C11.6678 4.0507 12.9768 5.3597 14.5844 5.3597ZM14.5844 0.693034C15.5493 0.693034 16.3344 1.4782 16.3344 2.44303C16.3344 3.40787 15.5493 4.19303 14.5844 4.19303C13.6196 4.19303 12.8344 3.40787 12.8344 2.44303C12.8344 1.4782 13.6196 0.693034 14.5844 0.693034ZM10.2608 19.4752L11.0844 19.943L10.4264 22.5669L8.07911 27.5264H6.79928L9.35078 22.0897L10.0519 19.3504C10.1219 19.3935 10.1919 19.4355 10.2631 19.4752H10.2608Z" fill="white"/>
</g>
<defs>
<clipPath id="clip0_172_1111">
<rect width="28" height="28" fill="white"/>
</clipPath>
</defs>
</svg>
