<svg width="28" height="28" viewBox="0 0 28 28" fill="none" xmlns="http://www.w3.org/2000/svg">
<path d="M19.5486 12.3842L16.7778 7.99633C16.2236 7.36283 15.4244 7 14.5833 7H10.9456L5.49961 9.723L4.09961 15.6147L5.23478 15.8842L6.50878 10.5222L11.0529 8.25067L9.42544 14.9858C9.12211 16.2423 9.69494 17.5677 10.8196 18.207L16.3333 21.3395V28H17.4999V20.6605L14.2403 18.809L16.6086 9.90383L18.7343 13.2813L23.5468 15.687L24.0683 14.6428L19.5474 12.3818L19.5486 12.3842ZM13.2416 18.2408L11.3971 17.1932C10.7216 16.8093 10.3774 16.0148 10.5606 15.26L12.2744 8.16667H14.5856C15.0476 8.16667 15.4886 8.34983 15.7733 8.61583L13.2428 18.242L13.2416 18.2408ZM14.5844 5.83333C16.1933 5.83333 17.5011 4.52433 17.5011 2.91667C17.5011 1.309 16.1933 0 14.5844 0C12.9756 0 11.6678 1.309 11.6678 2.91667C11.6678 4.52433 12.9768 5.83333 14.5844 5.83333ZM14.5844 1.16667C15.5493 1.16667 16.3344 1.95183 16.3344 2.91667C16.3344 3.8815 15.5493 4.66667 14.5844 4.66667C13.6196 4.66667 12.8344 3.8815 12.8344 2.91667C12.8344 1.95183 13.6196 1.16667 14.5844 1.16667ZM10.2608 19.9488L11.0844 20.4167L10.4264 23.0405L8.07911 28H6.79928L9.35078 22.5633L10.0519 19.824C10.1219 19.8672 10.1919 19.9092 10.2631 19.9488H10.2608Z" fill="#2B2B2B" fill-opacity="0.75"/>
</svg>
